<svg xmlns="http://www.w3.org/2000/svg" viewBox="0 0 189.21 246.71">
  <defs>
    <style>
      .cls-1 {
        fill: #404040;
      }

      .cls-2 {
        fill: #202020;
      }

      .cls-3 {
        fill: #606060;
      }

      .cls-4 {
        fill: #a7a8a5;
      }
    </style>
  </defs>
  <g id="Layer_2" data-name="Layer 2">
    <g id="right_board" data-name="right board">
      <g id="Group_142" data-name="Group 142">
        <path id="Rectangle_77" data-name="Rectangle 77" class="cls-1" d="M17.31,86.29H172.07V208.75a38,38,0,0,1-37.95,38H55.27a38,38,0,0,1-38-38h0V86.29Z"/>
        <path id="Rectangle_78" data-name="Rectangle 78" class="cls-2" d="M50.29,48.49H139.1a33,33,0,0,1,33,33h0a42.64,42.64,0,0,1-42.63,42.64H60A42.64,42.64,0,0,1,17.31,81.46h0A33,33,0,0,1,50.29,48.49Z"/>
        <path id="Rectangle_79" data-name="Rectangle 79" class="cls-3" d="M50.29,43.19H139.1a33,33,0,0,1,33,33h0a42.64,42.64,0,0,1-42.63,42.64H60A42.64,42.64,0,0,1,17.31,76.16h0A33,33,0,0,1,50.29,43.19Z"/>
        <path id="Rectangle_80" data-name="Rectangle 80" class="cls-2" d="M33.57,145.65H153v41.29A47,47,0,0,1,105.94,234H80.62a47,47,0,0,1-47.05-47.05h0V145.65Z"/>
        <path id="Path_560" data-name="Path 560" class="cls-3" d="M33.56,145.65H153s1.42,74.2-59.71,74.2S33.56,145.65,33.56,145.65Z"/>
        <path id="Path_561" data-name="Path 561" class="cls-3" d="M17.31,221.55c-9.25,0-17,1.4-17-7.85V162.4A16.75,16.75,0,0,1,17.1,145.65h.21Z"/>
        <path id="Path_562" data-name="Path 562" class="cls-3" d="M172.07,221.55c9.26,0,17,1.4,17-7.85V162.4a16.75,16.75,0,0,0-16.75-16.75h-.21Z"/>
        <path id="Path_563" data-name="Path 563" class="cls-4" d="M113.51,107.47a18,18,0,0,1-36-.14,18.2,18.2,0,0,1,.83-5.33,17.95,17.95,0,0,0,34.34,0A18.14,18.14,0,0,1,113.51,107.47Z"/>
        <path id="Path_564" data-name="Path 564" class="cls-4" d="M105.82,213.87a10.53,10.53,0,0,1-21,0,10,10,0,0,1,.49-3.12,10.57,10.57,0,0,0,20.07,0A10.33,10.33,0,0,1,105.82,213.87Z"/>
        <path id="Path_565" data-name="Path 565" class="cls-1" d="M69.39,43.19S67.82-.33,95.51,0s24.06,43.19,24.06,43.19h-7.26S110.89,8.43,94.69,8.25,77.51,43.19,77.51,43.19Z"/>
        <path id="Path_566" data-name="Path 566" class="cls-1" d="M.35,169.82s14-2.86,17-9.38V145.65S-2.9,145,.35,169.82Z"/>
        <path id="Path_567" data-name="Path 567" class="cls-1" d="M188.85,169.82S174.9,167,171.9,160.44V145.65S192.11,145,188.85,169.82Z"/>
      </g>
    </g>
  </g>
</svg>
