<svg xmlns="http://www.w3.org/2000/svg" xmlns:xlink="http://www.w3.org/1999/xlink" viewBox="0 0 517 500.47">
  <defs>
    <style>
      .cls-1, .cls-13, .cls-14, .cls-15, .cls-16, .cls-18, .cls-20, .cls-21, .cls-23, .cls-29, .cls-4, .cls-8 {
        fill: none;
      }

      .cls-2 {
        clip-path: url(#clip-path);
      }

      .cls-3 {
        fill: #e4f2fd;
      }

      .cls-23, .cls-4 {
        stroke: #f4a512;
      }

      .cls-13, .cls-14, .cls-15, .cls-16, .cls-18, .cls-20, .cls-21, .cls-29, .cls-4, .cls-8, .cls-9 {
        stroke-miterlimit: 10;
      }

      .cls-21, .cls-4 {
        stroke-width: 3px;
      }

      .cls-5 {
        fill: #172126;
      }

      .cls-6 {
        clip-path: url(#clip-path-2);
      }

      .cls-7 {
        fill: #f0a416;
      }

      .cls-8 {
        stroke: #172126;
        stroke-width: 2px;
      }

      .cls-9 {
        fill: #101011;
        stroke: #040506;
        stroke-width: 0.29px;
      }

      .cls-10 {
        fill: #fff;
      }

      .cls-11 {
        fill: #040506;
      }

      .cls-11, .cls-12 {
        fill-rule: evenodd;
      }

      .cls-12 {
        fill: #424446;
      }

      .cls-13 {
        stroke: #161615;
      }

      .cls-14, .cls-15, .cls-16, .cls-17, .cls-18 {
        stroke: #dd243e;
      }

      .cls-14 {
        stroke-width: 0.93px;
      }

      .cls-15 {
        stroke-width: 0.44px;
      }

      .cls-16 {
        stroke-width: 0.44px;
      }

      .cls-17 {
        fill: #dd243e;
      }

      .cls-19 {
        fill: #38393f;
      }

      .cls-20 {
        stroke: #38393f;
        stroke-width: 1.04px;
      }

      .cls-21 {
        stroke: #f3a212;
      }

      .cls-22 {
        fill: #f3a212;
      }

      .cls-23 {
        stroke-miterlimit: 10;
        stroke-width: 3px;
      }

      .cls-24 {
        fill: #f4a512;
      }

      .cls-25 {
        fill: #e5700b;
      }

      .cls-26 {
        fill: #2b3436;
      }

      .cls-27 {
        fill: #7bc1d0;
      }

      .cls-28 {
        fill: #2e99b1;
      }

      .cls-29 {
        stroke: #41464a;
      }
    </style>
    <clipPath id="clip-path">
      <circle class="cls-1" cx="279" cy="262.31" r="238"/>
    </clipPath>
    <clipPath id="clip-path-2">
      <rect class="cls-1" x="117.07" y="470.38" width="83.32" height="19.04"/>
    </clipPath>
  </defs>
  <g id="Layer_2" data-name="Layer 2">
    <g id="right_board" data-name="right board">
      <g id="crane">
        <g class="cls-2">
          <g id="Mask_Group_9" data-name="Mask Group 9">
            <circle id="Ellipse_276" data-name="Ellipse 276" class="cls-3" cx="279" cy="262.31" r="238"/>
            <g id="Group_163" data-name="Group 163">
              <rect id="Rectangle_113" data-name="Rectangle 113" class="cls-4" x="140.63" y="435.32" width="41" height="41"/>
              <path id="Path_626" data-name="Path 626" class="cls-4" d="M140.63,435.32l41,41Z"/>
            </g>
            <g id="foot">
              <rect id="Rectangle_142" data-name="Rectangle 142" class="cls-5" x="86.83" y="489.41" width="143.22" height="11.06"/>
              <rect id="Rectangle_143" data-name="Rectangle 143" class="cls-5" x="117.07" y="464.63" width="83.32" height="5.75"/>
              <g id="Group_187" data-name="Group 187">
                <g class="cls-6">
                  <g id="Group_186" data-name="Group 186">
                    <rect id="Rectangle_144" data-name="Rectangle 144" class="cls-7" x="117.07" y="470.38" width="83.32" height="19.04"/>
                    <line id="Line_6" data-name="Line 6" class="cls-8" x1="208.25" y1="469.52" x2="196.02" y2="491.81"/>
                    <line id="Line_7" data-name="Line 7" class="cls-8" x1="200.36" y1="469.52" x2="188.13" y2="491.81"/>
                    <line id="Line_8" data-name="Line 8" class="cls-8" x1="192.46" y1="469.52" x2="180.23" y2="491.81"/>
                    <line id="Line_9" data-name="Line 9" class="cls-8" x1="184.57" y1="469.52" x2="172.34" y2="491.81"/>
                    <line id="Line_10" data-name="Line 10" class="cls-8" x1="176.68" y1="469.52" x2="164.44" y2="491.81"/>
                    <line id="Line_11" data-name="Line 11" class="cls-8" x1="168.78" y1="469.52" x2="156.55" y2="491.81"/>
                    <line id="Line_12" data-name="Line 12" class="cls-8" x1="160.89" y1="469.52" x2="148.65" y2="491.81"/>
                    <line id="Line_13" data-name="Line 13" class="cls-8" x1="152.99" y1="469.52" x2="140.76" y2="491.81"/>
                    <line id="Line_14" data-name="Line 14" class="cls-8" x1="145.1" y1="469.52" x2="132.86" y2="491.81"/>
                    <line id="Line_15" data-name="Line 15" class="cls-8" x1="137.2" y1="469.52" x2="124.97" y2="491.81"/>
                    <line id="Line_16" data-name="Line 16" class="cls-8" x1="129.31" y1="469.52" x2="117.07" y2="491.81"/>
                    <line id="Line_17" data-name="Line 17" class="cls-8" x1="121.41" y1="469.52" x2="109.18" y2="491.81"/>
                  </g>
                </g>
              </g>
            </g>
            <g id="Group_192" data-name="Group 192">
              <g id="phone">
                <rect id="Rectangle_146" data-name="Rectangle 146" class="cls-9" x="266" y="214.18" width="122.41" height="247.65" rx="10.92"/>
                <rect id="Rectangle_147" data-name="Rectangle 147" class="cls-10" x="271.33" y="226.87" width="111.74" height="223.73" rx="3.1"/>
              </g>
              <g id="haak">
                <g id="Group_188" data-name="Group 188">
                  <path id="Path_654" data-name="Path 654" class="cls-11" d="M303.68,152.2h12.88l2.68-12.4c1.62-7.52.92-5.7-2.66-10.38l-6.46,0-6.45,0c-3.6,4.68-4.29,2.86-2.66,10.38Z"/>
                  <path id="Path_655" data-name="Path 655" class="cls-12" d="M312.32,152.2h4.23l2.67-12.4c1.63-7.52.94-5.71-2.66-10.38h-8.51c-3.58,4.66-4.28,2.86-2.66,10.38l2.68,12.4Z"/>
                  <path id="Path_656" data-name="Path 656" class="cls-11" d="M314.17,170.53c-5.82,4.75-13.86-1-11.07-7.84,1-2.44,4.14-3.72,5-6.43h4.3c0,2.79-.64,4.17-2.18,5.45-1.23,1-3.5,2.11-2,4.77a2.61,2.61,0,0,0,2.76,1.08c1.63-.25,2.46-1.84,3.14-3.3.82-1.77,1.38-3.36,2.87-2.13C319.24,164,315.64,169.33,314.17,170.53Z"/>
                  <path id="Path_657" data-name="Path 657" class="cls-12" d="M311.81,167.28a2.74,2.74,0,0,1-.85.28,2.62,2.62,0,0,1-2.76-1.09c-1.53-2.66.74-3.72,2-4.76,1.55-1.28,2.15-2.66,2.19-5.45h-1.55c-.82,2.71-4,4-5,6.42a6.83,6.83,0,0,0,3.52,9,6.56,6.56,0,0,0,1.49.45,7.48,7.48,0,0,0,3.3-1.6c1.3-1.07,4.28-5.39,3.35-7.66-.84,1.61-1.59,4.34-3.8,4.7a3.13,3.13,0,0,1-1.9-.28Z"/>
                  <path id="Path_658" data-name="Path 658" class="cls-11" d="M313.4,165.66c.26-.45.5-.92.72-1.4.82-1.77,1.38-3.36,2.87-2.13,1.29,1.07.66,3.28-.4,5.2"/>
                  <path id="Path_659" data-name="Path 659" class="cls-12" d="M316.58,167.33c.84-1.55,1.42-3.29.93-4.47-.61,1.18-1.18,2.95-2.3,4"/>
                  <path id="Path_660" data-name="Path 660" class="cls-11" d="M305,152.87H315.2v1.92a.67.67,0,0,1-.68.68h-8.85a.67.67,0,0,1-.67-.68l0-1.92h0"/>
                  <path id="Path_661" data-name="Path 661" class="cls-12" d="M307.26,152.87h7.95v1.92a.67.67,0,0,1-.67.68h-6.62a.67.67,0,0,1-.67-.68l0-1.92h0"/>
                  <path id="Path_662" data-name="Path 662" class="cls-11" d="M304.59,128.73V111.58h-.92v17.15Z"/>
                  <path id="Path_663" data-name="Path 663" class="cls-12" d="M316.58,128.73V111.44h-.92v17.29Z"/>
                </g>
                <path id="Path_664" data-name="Path 664" class="cls-13" d="M309.25,167.37c.63-1.18,3.47-1,4.76,0L371.13,215"/>
                <line id="Line_18" data-name="Line 18" class="cls-13" x1="281.16" y1="213.77" x2="307.74" y2="170.74"/>
                <path id="Path_665" data-name="Path 665" class="cls-12" d="M308.33,166.67a3,3,0,0,0,2.26.94c1.3-.11-1,1-1,1l-2.11-1.09Z"/>
              </g>
              <g id="wireframe">
                <g id="Group_189" data-name="Group 189">
                  <rect id="Rectangle_148" data-name="Rectangle 148" class="cls-14" x="278.36" y="256.11" width="97.7" height="59.39"/>
                  <line id="Line_19" data-name="Line 19" class="cls-14" x1="278.36" y1="315.5" x2="375.69" y2="256.66"/>
                  <line id="Line_20" data-name="Line 20" class="cls-14" x1="279.21" y1="256.66" x2="375.5" y2="314.7"/>
                </g>
                <g id="Group_190" data-name="Group 190">
                  <rect id="Rectangle_149" data-name="Rectangle 149" class="cls-15" x="283.5" y="348.83" width="38.05" height="34.84"/>
                  <line id="Line_21" data-name="Line 21" class="cls-15" x1="283.5" y1="383.67" x2="321.41" y2="349.15"/>
                  <line id="Line_22" data-name="Line 22" class="cls-15" x1="283.84" y1="349.15" x2="321.34" y2="383.2"/>
                </g>
                <g id="Group_191" data-name="Group 191">
                  <rect id="Rectangle_150" data-name="Rectangle 150" class="cls-16" x="329.03" y="349.15" width="37.68" height="34.5"/>
                  <line id="Line_23" data-name="Line 23" class="cls-16" x1="329.03" y1="383.65" x2="366.57" y2="349.47"/>
                  <line id="Line_24" data-name="Line 24" class="cls-16" x1="329.36" y1="349.47" x2="366.49" y2="383.19"/>
                </g>
                <rect id="Rectangle_151" data-name="Rectangle 151" class="cls-17" x="283.84" y="322" width="82.87" height="4.84"/>
                <rect id="Rectangle_152" data-name="Rectangle 152" class="cls-17" x="283.84" y="329.75" width="82.87" height="4.84"/>
                <line id="Line_25" data-name="Line 25" class="cls-18" x1="283.84" y1="397.56" x2="351.3" y2="397.56"/>
                <line id="Line_26" data-name="Line 26" class="cls-18" x1="283.84" y1="405.41" x2="340.87" y2="405.41"/>
                <line id="Line_27" data-name="Line 27" class="cls-18" x1="283.84" y1="413.27" x2="340.87" y2="413.27"/>
                <line id="Line_28" data-name="Line 28" class="cls-18" x1="283.84" y1="421.12" x2="320.25" y2="421.12"/>
              </g>
            </g>
          </g>
        </g>
        <g id="hijskraan">
          <circle id="Ellipse_277" data-name="Ellipse 277" class="cls-19" cx="159.96" cy="6.97" r="6.97"/>
          <line id="Line_1" data-name="Line 1" class="cls-20" x1="170.78" y1="17.57" x2="274.29" y2="85.47"/>
          <line id="Line_2" data-name="Line 2" class="cls-20" x1="372.87" y1="84.99" x2="172.45" y2="15.26"/>
          <line id="Line_3" data-name="Line 3" class="cls-20" x1="50.73" y1="78.56" x2="147.8" y2="17.61"/>
          <g id="hoogte">
            <g id="Group_164" data-name="Group 164">
              <rect id="Rectangle_114" data-name="Rectangle 114" class="cls-4" x="140.63" y="394.32" width="41" height="41"/>
              <path id="Path_627" data-name="Path 627" class="cls-4" d="M181.63,394.32l-41,41Z"/>
            </g>
            <g id="Group_165" data-name="Group 165">
              <rect id="Rectangle_115" data-name="Rectangle 115" class="cls-4" x="140.63" y="353.32" width="41" height="41"/>
              <path id="Path_628" data-name="Path 628" class="cls-4" d="M140.63,353.32l41,41Z"/>
            </g>
            <g id="Group_166" data-name="Group 166">
              <rect id="Rectangle_116" data-name="Rectangle 116" class="cls-4" x="140.63" y="312.33" width="41" height="41"/>
              <path id="Path_629" data-name="Path 629" class="cls-4" d="M181.63,312.33l-41,41Z"/>
            </g>
            <g id="Group_167" data-name="Group 167">
              <rect id="Rectangle_117" data-name="Rectangle 117" class="cls-4" x="140.63" y="271.33" width="41" height="41"/>
              <path id="Path_630" data-name="Path 630" class="cls-4" d="M140.63,271.33l41,41Z"/>
            </g>
            <g id="Group_168" data-name="Group 168">
              <rect id="Rectangle_118" data-name="Rectangle 118" class="cls-4" x="140.63" y="230.33" width="41" height="41"/>
              <path id="Path_631" data-name="Path 631" class="cls-4" d="M181.63,230.33l-41,41Z"/>
            </g>
            <g id="Group_169" data-name="Group 169">
              <rect id="Rectangle_119" data-name="Rectangle 119" class="cls-4" x="140.63" y="189.34" width="41" height="41"/>
              <path id="Path_632" data-name="Path 632" class="cls-4" d="M140.63,189.33l41,41Z"/>
            </g>
            <g id="Group_170" data-name="Group 170">
              <rect id="Rectangle_120" data-name="Rectangle 120" class="cls-4" x="140.63" y="148.34" width="41" height="41"/>
              <path id="Path_633" data-name="Path 633" class="cls-4" d="M181.63,148.34l-41,41Z"/>
            </g>
            <g id="Group_171" data-name="Group 171">
              <rect id="Rectangle_121" data-name="Rectangle 121" class="cls-4" x="140.63" y="107.34" width="41" height="41"/>
              <path id="Path_634" data-name="Path 634" class="cls-4" d="M140.63,107.34l41,41Z"/>
            </g>
            <path id="Path_635" data-name="Path 635" class="cls-21" d="M143.57,107.34l7.86-95.74h17.3l9.13,95.74"/>
            <line id="Line_4" data-name="Line 4" class="cls-4" x1="148.23" y1="50.65" x2="172.46" y2="50.65"/>
            <line id="Line_5" data-name="Line 5" class="cls-4" x1="148.23" y1="32.04" x2="172.46" y2="32.04"/>
            <rect id="Rectangle_122" data-name="Rectangle 122" class="cls-22" x="142.31" y="6.56" width="33.97" height="11.01" rx="3.38"/>
          </g>
          <g id="breedte">
            <g id="Group_172" data-name="Group 172">
              <rect id="Rectangle_123" data-name="Rectangle 123" class="cls-23" x="77.23" y="86.03" width="24.64" height="24.64" transform="translate(-0.64 0.58) rotate(-0.37)"/>
              <path id="Path_636" data-name="Path 636" class="cls-4" d="M102,110.59,77.15,86.11Z"/>
            </g>
            <g id="Group_173" data-name="Group 173">
              <rect id="Rectangle_124" data-name="Rectangle 124" class="cls-23" x="101.87" y="85.87" width="24.64" height="24.64" transform="translate(-0.64 0.74) rotate(-0.37)"/>
              <path id="Path_637" data-name="Path 637" class="cls-4" d="M126.43,85.79,102,110.59Z"/>
            </g>
            <g id="Group_174" data-name="Group 174">
              <rect id="Rectangle_125" data-name="Rectangle 125" class="cls-23" x="126.51" y="85.87" width="24.64" height="24.64" transform="translate(-0.63 0.9) rotate(-0.37)"/>
              <path id="Path_638" data-name="Path 638" class="cls-4" d="M151.24,110.43,126.44,86Z"/>
            </g>
            <g id="Group_175" data-name="Group 175">
              <rect id="Rectangle_126" data-name="Rectangle 126" class="cls-23" x="151.16" y="85.71" width="24.64" height="24.64" transform="translate(-0.63 1.06) rotate(-0.37)"/>
              <path id="Path_639" data-name="Path 639" class="cls-4" d="M175.72,85.63l-24.48,24.8Z"/>
            </g>
            <g id="Group_176" data-name="Group 176">
              <rect id="Rectangle_127" data-name="Rectangle 127" class="cls-23" x="175.8" y="85.71" width="24.64" height="24.64" transform="translate(-0.63 1.22) rotate(-0.37)"/>
              <path id="Path_640" data-name="Path 640" class="cls-4" d="M200.52,110.27l-24.8-24.48Z"/>
            </g>
            <g id="Group_177" data-name="Group 177">
              <rect id="Rectangle_128" data-name="Rectangle 128" class="cls-23" x="200.44" y="85.55" width="24.64" height="24.64" transform="translate(-0.63 1.38) rotate(-0.37)"/>
              <path id="Path_641" data-name="Path 641" class="cls-4" d="M225,85.47l-24.48,24.8Z"/>
            </g>
            <g id="Group_178" data-name="Group 178">
              <rect id="Rectangle_129" data-name="Rectangle 129" class="cls-23" x="225.09" y="85.55" width="24.64" height="24.64" transform="translate(-0.63 1.54) rotate(-0.37)"/>
              <path id="Path_642" data-name="Path 642" class="cls-4" d="M249.81,110.11,225,85.63Z"/>
            </g>
            <g id="Group_179" data-name="Group 179">
              <rect id="Rectangle_130" data-name="Rectangle 130" class="cls-23" x="249.73" y="85.39" width="24.64" height="24.64" transform="translate(-0.63 1.7) rotate(-0.37)"/>
              <path id="Path_643" data-name="Path 643" class="cls-4" d="M274.29,85.31l-24.48,24.8Z"/>
            </g>
            <g id="Group_180" data-name="Group 180">
              <rect id="Rectangle_131" data-name="Rectangle 131" class="cls-23" x="274.37" y="85.39" width="24.64" height="24.64" transform="translate(-0.63 1.86) rotate(-0.37)"/>
              <path id="Path_644" data-name="Path 644" class="cls-4" d="M299.1,110,274.3,85.47Z"/>
            </g>
            <g id="Group_181" data-name="Group 181">
              <rect id="Rectangle_132" data-name="Rectangle 132" class="cls-23" x="299.02" y="85.23" width="24.64" height="24.64" transform="translate(-0.63 2.02) rotate(-0.37)"/>
              <path id="Path_645" data-name="Path 645" class="cls-4" d="M323.58,85.15,299.1,110Z"/>
            </g>
            <g id="Group_182" data-name="Group 182">
              <rect id="Rectangle_133" data-name="Rectangle 133" class="cls-23" x="323.66" y="85.23" width="24.64" height="24.64" transform="translate(-0.63 2.18) rotate(-0.37)"/>
              <path id="Path_646" data-name="Path 646" class="cls-4" d="M348.38,109.79,323.59,85.31Z"/>
            </g>
            <g id="Group_183" data-name="Group 183">
              <rect id="Rectangle_134" data-name="Rectangle 134" class="cls-23" x="348.3" y="85.07" width="24.64" height="24.64" transform="translate(-0.62 2.34) rotate(-0.37)"/>
              <path id="Path_647" data-name="Path 647" class="cls-4" d="M372.87,85l-24.49,24.8Z"/>
            </g>
            <g id="Group_184" data-name="Group 184">
              <rect id="Rectangle_135" data-name="Rectangle 135" class="cls-23" x="27.78" y="86.35" width="24.64" height="24.64" transform="translate(-0.64 0.26) rotate(-0.37)"/>
              <path id="Path_648" data-name="Path 648" class="cls-4" d="M52.51,110.91,27.71,86.43Z"/>
            </g>
            <g id="Group_185" data-name="Group 185">
              <rect id="Rectangle_136" data-name="Rectangle 136" class="cls-23" x="52.42" y="86.19" width="24.64" height="24.64" transform="translate(-0.64 0.42) rotate(-0.37)"/>
              <path id="Path_649" data-name="Path 649" class="cls-4" d="M77,86.11,52.5,110.91Z"/>
            </g>
            <path id="Path_650" data-name="Path 650" class="cls-4" d="M372.87,85l.16,24.64h36.34L385.29,85.15Z"/>
          </g>
          <g id="gewicht_achter" data-name="gewicht achter">
            <rect id="Rectangle_137" data-name="Rectangle 137" class="cls-24" y="75.42" width="65.72" height="45.31" rx="5.56"/>
            <rect id="Rectangle_138" data-name="Rectangle 138" class="cls-25" x="3.64" y="103.95" width="58.17" height="13.7" rx="1.76"/>
          </g>
          <g id="cabine">
            <path id="Path_651" data-name="Path 651" class="cls-26" d="M198.45,104.37l-3.38,10a11.31,11.31,0,0,1-10.72,7.7H139.9a11.31,11.31,0,0,1-11.31-11.31h0V75.12A11.31,11.31,0,0,1,139.9,63.81h43.54a11.32,11.32,0,0,1,11,8.82L199,92.83A21.46,21.46,0,0,1,198.45,104.37Z"/>
            <path id="Path_652" data-name="Path 652" class="cls-27" d="M134.87,70.33h51.52L192.93,95a3,3,0,0,1-2.14,3.68,3.33,3.33,0,0,1-.77.11H134.87Z"/>
            <path id="Path_653" data-name="Path 653" class="cls-28" d="M186.39,70.33,134.87,98.81H190a3,3,0,0,0,3-3,2.84,2.84,0,0,0-.1-.76Z"/>
            <rect id="Rectangle_139" data-name="Rectangle 139" class="cls-26" x="151.43" y="68.09" width="3.1" height="32.6"/>
            <rect id="Rectangle_140" data-name="Rectangle 140" class="cls-26" x="171.5" y="68.09" width="3.1" height="32.6"/>
            <rect id="Rectangle_141" data-name="Rectangle 141" class="cls-29" x="155.12" y="102.02" width="15.49" height="16.97"/>
          </g>
        </g>
      </g>
    </g>
  </g>
</svg>
