<svg xmlns="http://www.w3.org/2000/svg" viewBox="0 0 939.01 846.88">
  <defs>
    <style>
      .cls-1 {
        fill: #00385e;
      }

      .cls-2 {
        fill: #00233b;
      }

      .cls-3 {
        fill: #001626;
      }

      .cls-4 {
        fill: #dbdbdb;
      }

      .cls-5 {
        fill: #404040;
      }

      .cls-6 {
        fill: #202020;
      }

      .cls-7 {
        fill: #606060;
      }

      .cls-8 {
        fill: #a7a8a5;
      }

      .cls-9 {
        opacity: 0.71;
      }

      .cls-10 {
        fill: #3a3e5f;
      }

      .cls-11 {
        fill: #aeb0bd;
      }

      .cls-12 {
        fill: #2f3355;
      }

      .cls-13 {
        fill: #4b4e6c;
      }

      .cls-14 {
        fill: #bcbdc8;
      }

      .cls-14, .cls-26, .cls-28, .cls-29 {
        opacity: 0.4;
      }

      .cls-14, .cls-18, .cls-26, .cls-28, .cls-29, .cls-33 {
        isolation: isolate;
      }

      .cls-15 {
        fill: #181c42;
      }

      .cls-16 {
        fill: #65dfed;
      }

      .cls-17 {
        fill: #e7b3d8;
      }

      .cls-18 {
        fill: #afeef6;
        opacity: 0.5;
      }

      .cls-19 {
        fill: #a7a9b7;
      }

      .cls-20 {
        fill: #c5c6d0;
      }

      .cls-21 {
        fill: #ededf0;
      }

      .cls-22 {
        fill: #9799aa;
      }

      .cls-23 {
        fill: #d5d6dd;
      }

      .cls-24 {
        fill: #fff;
      }

      .cls-25 {
        fill: #00a7b5;
      }

      .cls-26, .cls-27 {
        fill: #5bb0ba;
      }

      .cls-28 {
        fill: #00b4c2;
      }

      .cls-29 {
        fill: #f3debe;
      }

      .cls-30 {
        fill: #363a5b;
      }

      .cls-31 {
        opacity: 0.7;
      }

      .cls-32 {
        fill: #eba947;
      }

      .cls-33 {
        fill: #f2c788;
        opacity: 0.6;
      }

      .cls-34 {
        fill: #f5c54a;
      }

      .cls-35 {
        opacity: 0.7;
      }
    </style>
  </defs>
  <g id="Layer_2" data-name="Layer 2">
    <g id="right_board" data-name="right board">
      <g id="header_illustrations" data-name="header illustrations">
        <path class="cls-1" d="M937.38,104.85c1.59,237-295,508.92-342.22,514.68a9.27,9.27,0,0,1-3-.06l-193.95,11-.58-.31C352.08,605.89,330,546,322.8,494.82c-7.17-51.42-8.25-106.14-35.58-150.27-32.44-52.39-93.86-77.43-143.87-113.4C67.85,176.86,15.53,91.63,0,0H929C941.06,31.58,939.88,70,937.38,104.85Z"/>
        <path class="cls-2" d="M891.58,52.19C814.81,294,829.86,380.7,594,601.12l-1.85,1.73-1.9,1.77L402.76,599h0l-2.5-.08-.6-.4c-28.93-19.06-32-59.48-37.38-93.85-10.74-68.7-41.42-151.11-89.74-201.11-41.1-42.52-108.48-98-156-130.22C59,136.08,10.09,45.79,11.63,0H895.55C896.27,16.37,891.64,35.28,891.58,52.19Z"/>
        <path class="cls-3" d="M65.23,0H814.18l-.55,1.39A1088.14,1088.14,0,0,0,744,278.8c-4.74,41.44-7.57,84.71-28.21,121-17.1,30.05-44.84,52.3-67.3,78.59a270.39,270.39,0,0,0-57.74,114.86h-.09l-5.52-.28L424.42,585l.15-.88c.4-2.31.77-4.63,1.09-6.95,9-63.39-7.11-130.11-44.36-182.23-27-37.74-65.43-70.15-75.34-115.47-13.91-63.63-102.24-123.18-128.8-158C125.19,60.58,65.42,2.91,65.12,1.39A2.54,2.54,0,0,1,65.23,0Z"/>
        <g id="backpack">
          <path id="Rectangle_8" data-name="Rectangle 8" class="cls-4" d="M359.18,820.36H637a13.26,13.26,0,0,1,13.26,13.26h0A13.26,13.26,0,0,1,637,846.88H359.18a13.26,13.26,0,0,1-13.26-13.26h0A13.26,13.26,0,0,1,359.18,820.36Z"/>
          <path id="Rectangle_9" data-name="Rectangle 9" class="cls-5" d="M397.62,631.84H595.16v166.8a38,38,0,0,1-37.95,38H435.58a38,38,0,0,1-38-38h0V631.84Z"/>
          <path id="Rectangle_10" data-name="Rectangle 10" class="cls-6" d="M430.75,583.58H562a33.13,33.13,0,0,1,33.13,33.13v20.55a42.83,42.83,0,0,1-42.83,42.83H440.46a42.83,42.83,0,0,1-42.84-42.83h0V616.71A33.13,33.13,0,0,1,430.75,583.58Z"/>
          <path id="Rectangle_11" data-name="Rectangle 11" class="cls-7" d="M430.75,576.82H562A33.13,33.13,0,0,1,595.16,610v20.54a42.84,42.84,0,0,1-42.83,42.84H440.46a42.84,42.84,0,0,1-42.84-42.84h0V610A33.13,33.13,0,0,1,430.75,576.82Z"/>
          <path id="Rectangle_12" data-name="Rectangle 12" class="cls-6" d="M418.37,707.61H570.81v65.7a47,47,0,0,1-47,47.05H465.42a47,47,0,0,1-47.05-47.05h0v-65.7Z"/>
          <path id="Path_38" data-name="Path 38" class="cls-7" d="M418.37,707.61H570.81s1.8,94.71-76.22,94.71S418.37,707.61,418.37,707.61Z"/>
          <path id="Path_39" data-name="Path 39" class="cls-7" d="M397.62,804.48c-11.81,0-21.65,1.79-21.65-10V729a21.38,21.38,0,0,1,21.38-21.38h.27Z"/>
          <path id="Path_40" data-name="Path 40" class="cls-7" d="M595.16,804.48c11.81,0,21.65,1.79,21.65-10V729a21.38,21.38,0,0,0-21.38-21.38h-.27Z"/>
          <path id="Path_41" data-name="Path 41" class="cls-8" d="M520.41,658.87a23,23,0,1,1-44.89-7,22.91,22.91,0,0,0,43.83,0A23,23,0,0,1,520.41,658.87Z"/>
          <path id="Path_42" data-name="Path 42" class="cls-8" d="M510.59,794.68a13.43,13.43,0,0,1-26.86,0,12.78,12.78,0,0,1,.62-4,13.5,13.5,0,0,0,25.62,0A13.08,13.08,0,0,1,510.59,794.68Z"/>
          <path id="Path_43" data-name="Path 43" class="cls-5" d="M464.1,576.82s-2-55.55,33.34-55.13,30.7,55.13,30.7,55.13h-9.27s-1.8-44.37-22.48-44.6-21.93,44.6-21.93,44.6Z"/>
          <path id="Path_44" data-name="Path 44" class="cls-5" d="M376,738.45s17.82-3.64,21.65-12V707.61S371.82,706.72,376,738.45Z"/>
          <path id="Path_45" data-name="Path 45" class="cls-5" d="M616.58,738.45s-17.82-3.64-21.64-12V707.61S620.73,706.72,616.58,738.45Z"/>
        </g>
        <g id="phone" class="cls-9">
          <g id="Group_85" data-name="Group 85">
            <path id="Path_375" data-name="Path 375" class="cls-10" d="M396.64,297.45a8.83,8.83,0,0,0-2.63,8c.91,5,42.66,64.93,46.93,67.53s10.71,3.67,22.3-3.64,14.83-9.56,16.11-13.69a9.41,9.41,0,0,0-.88-7.42l-49.14-51Z"/>
            <path id="Path_376" data-name="Path 376" class="cls-11" d="M396,298.07h0c-.09.11-.19.22-.29.36l-.05.07c-.09.12-.19.25-.28.39l-.06.08a8.77,8.77,0,0,0-.67,1.2c-1,4.31,5.32,12,9.5,17.79,4.45,6.18,34.35,48.4,39.36,52.63s13.93-.52,20.36-4.44c5.73-3.48,14.53-8.26,15.6-13.1a10,10,0,0,0,.17-1.22,9.76,9.76,0,0,0-1-3.2l-49.35-51.4-32.57.22C396.5,297.66,396.25,297.87,396,298.07Z"/>
            <path id="Path_377" data-name="Path 377" class="cls-12" d="M395.63,298.69c-2.16,4.09,4.73,12.44,9.19,18.63S439,365.64,444,369.87s14.67-1.55,21.11-5.46,14-8.05,14.46-13S451,311.16,440.68,296.6c-2.86-4.05-9.23-12.59-14.76-11.9C418.45,285.63,397.84,294.51,395.63,298.69Z"/>
            <path id="Path_378" data-name="Path 378" class="cls-13" d="M439.76,363.18c-8.55-10.81-24.28-32.88-31.09-42.43l-2.93-4.1q-.83-1.14-1.74-2.37c-1.68-2.29-3.42-4.65-4.84-6.93,8.6-3.8,25.72-11.39,36-16a61.74,61.74,0,0,1,4.6,5.86c3.27,4.63,8.44,11.34,13.91,18.45,7.51,9.76,16,20.77,20.83,28.1Z"/>
            <path id="Path_379" data-name="Path 379" class="cls-14" d="M405.74,316.65l0,.05c9.12.83,18.28,1.35,27.43,1.79,7.66.36,15.46.39,23.2.8l-2.75-3.58c-3.37-4.37-6.62-8.6-9.38-12.29-2.95-.49-5.89-.93-8.81-1.24-7.06-.75-14.16-1.09-21.25-1.5l-15.06,6.67c1.42,2.27,3.16,4.63,4.84,6.93Q404.92,315.51,405.74,316.65Z"/>
            <path id="Path_380" data-name="Path 380" class="cls-14" d="M466.4,332.47c-1.42-1.92-2.9-3.89-4.42-5.89-7.68-.24-15.42-1-23-1.24-9.32-.35-18.63-.74-27.94-1.32l4,5.6C432.11,331.51,449.3,331,466.4,332.47Z"/>
          </g>
          <path id="Path_381" data-name="Path 381" class="cls-15" d="M415.56,293.59a1.18,1.18,0,1,1-1.58-.7A1.22,1.22,0,0,1,415.56,293.59Z"/>
          <path id="Path_382" data-name="Path 382" class="cls-15" d="M418,292.26a.64.64,0,0,1-.39.81.64.64,0,0,1-.47-1.19A.67.67,0,0,1,418,292.26Z"/>
        </g>
        <g id="watch" class="cls-9">
          <path id="Path_383" data-name="Path 383" class="cls-16" d="M597.29,431s5.64,2,4.43,11.27-6.84,17.71-15,24.55-13.82,7.38-18.11,7.38-10.07-3.09-10.07-3.09,4.83,7.92,8.46,10.2,6.7,4.16,12.47,3.62,17.44-3.62,26.83-17.84,7.11-21.47,5.64-24.69S603.73,431.4,597.29,431Z"/>
          <path id="Path_384" data-name="Path 384" class="cls-17" d="M597.29,431s5.64,2,4.43,11.27-6.84,17.71-15,24.55-13.82,7.38-18.11,7.38-10.07-3.09-10.07-3.09,4.83,7.92,8.46,10.2,6.7,4.16,12.47,3.62,17.44-3.62,26.83-17.84,7.11-21.47,5.64-24.69S603.73,431.4,597.29,431Z"/>
          <g id="Group_87" data-name="Group 87">
            <path id="Path_385" data-name="Path 385" class="cls-18" d="M598.77,431.92a7.07,7.07,0,0,0-.81-.83c-.22,0-.44-.08-.66-.09A5.76,5.76,0,0,1,598.77,431.92Z"/>
            <path id="Path_386" data-name="Path 386" class="cls-18" d="M611.92,442.4a23.73,23.73,0,0,0-4.79-6.13,22,22,0,0,1,3.85,5.19c1.47,3.22,3.75,10.47-5.64,24.69s-21.06,17.3-26.83,17.84-8.85-1.34-12.47-3.62a10.88,10.88,0,0,1-1.55-1.23,13.84,13.84,0,0,0,2.48,2.17c3.63,2.28,6.71,4.15,12.48,3.62s17.44-3.62,26.83-17.84S613.39,445.62,611.92,442.4Z"/>
          </g>
          <path id="Path_387" data-name="Path 387" class="cls-16" d="M590.59,439.85s8.18-6.57,16.1-2.14,6,14.22,6,14.22,3.09-10.47-6.44-19.32-16.23-8.72-22.4-6.44-6.57,5.23-6.57,5.23Z"/>
          <path id="Path_388" data-name="Path 388" class="cls-16" d="M569.79,461.45s-6.71,5.64-6.44,12.08S573,484.39,573,484.39s-12.88-2.55-18.24-15.16,4.29-20.12,4.29-20.12Z"/>
          <g id="Group_88" data-name="Group 88">
            <path id="Path_389" data-name="Path 389" class="cls-12" d="M553.69,443.88s-3.89,3.75-.27,9.39,8.32,11.54,15.7,11.67S592.06,446,593.67,442.4s-.53-8.32-5.36-13.41-9.66-7.25-15.3-4.16S555.57,440.26,553.69,443.88Z"/>
            <path id="Path_390" data-name="Path 390" class="cls-13" d="M578.25,423.41a10.41,10.41,0,0,0-5.24,1.42c-5.63,3.08-17.44,15.43-19.32,19.05a6.37,6.37,0,0,0-.9,1.23,8.71,8.71,0,0,0,1.93,4.67c3.49,4.29,7.83,9.79,12.79,9.26s20.8-18.25,21.74-20.39.53-3.49-1.61-6.31A54.39,54.39,0,0,0,578.25,423.41Z"/>
            <path id="Path_391" data-name="Path 391" class="cls-14" d="M587.58,441a15.71,15.71,0,0,0,1.66-2.31c.94-2.15.54-3.49-1.61-6.31-.2-.26-.44-.56-.72-.89-2.47.12-4.92.24-7.32.46-6,.54-12,1.46-17.89,2.49a70.39,70.39,0,0,0-7.55,8.71C565.31,442.69,576.43,441.54,587.58,441Z"/>
            <path id="Path_392" data-name="Path 392" class="cls-14" d="M584,445.09c-4.16.49-8.34.77-12.34,1-6.13.39-12.19,1-18.31,1.33a8.82,8.82,0,0,0,1.37,2.33c.51.62,1,1.27,1.57,1.92,7.79-.7,15.61-1.45,23.41-2.07C581.22,448.1,582.69,446.54,584,445.09Z"/>
          </g>
        </g>
        <g id="laptop" class="cls-9">
          <g id="Group_103" data-name="Group 103">
            <g id="Group_102" data-name="Group 102">
              <path id="Path_393" data-name="Path 393" class="cls-19" d="M505.27,162.65l.59,3.82L608.34,278.34l.28-3.25-100-110.28Z"/>
              <path id="Path_394" data-name="Path 394" class="cls-20" d="M608.4,275.51l-.06,2.83,54.1-7.62,1.21-2.24-42.8,2.79-12,2.14Z"/>
              <path id="Path_395" data-name="Path 395" class="cls-21" d="M563.15,165.38l-57.88-2.73L608.4,275.51l55.25-7Z"/>
              <path id="Path_396" data-name="Path 396" class="cls-12" d="M561.92,165.23l66.93-65.86s3.07-4.13,8.84,0,64,57.94,64,57.94,23.42,21.9,31.12,29.31c2.87,2.76,5.05,4.48,3,8.95s-13.63,14.94-13.63,14.94l-58.51,58Z"/>
              <path id="Path_397" data-name="Path 397" class="cls-13" d="M570.91,164.3,631,103.52l99,90.58-64.81,65Z"/>
              <path id="Path_398" data-name="Path 398" class="cls-14" d="M675.53,194.83c15.45-2.85,30.92-5.25,46.3-8.19L694.89,162c-13.95,2.39-27.95,4.47-41.86,6.63-22.56,3.5-45.4,8.12-68.27,9.6l29,29.14C634.47,203.85,654.86,198.65,675.53,194.83Z"/>
              <path id="Path_399" data-name="Path 399" class="cls-14" d="M686.77,212.93c10.62-2.1,21.12-4.54,31.58-7.16l9.69-9.71c-13.9,3.06-28,5.44-41.82,7.95-21.36,3.89-42.7,7.74-64,11.86l7.22,7.25C648.57,219.9,667.72,216.7,686.77,212.93Z"/>
              <path id="Path_400" data-name="Path 400" class="cls-11" d="M536.59,169.08l24.71.58,91.14,91.79L627,264.31Z"/>
              <g id="Group_90" data-name="Group 90">
                <path id="Path_401" data-name="Path 401" class="cls-22" d="M644.31,258.78a.45.45,0,0,1-.21-.12l-35-35.6a.46.46,0,0,1,0-.65.47.47,0,0,1,.63,0l35,35.6a.46.46,0,0,1-.44.77Z"/>
              </g>
              <g id="Group_91" data-name="Group 91">
                <path id="Path_402" data-name="Path 402" class="cls-22" d="M600,213.65a.5.5,0,0,1-.22-.13L584,197.45a.46.46,0,1,1,.63-.66l0,0,15.79,16.07a.46.46,0,0,1,0,.65.48.48,0,0,1-.44.12Z"/>
              </g>
              <g id="Group_92" data-name="Group 92">
                <path id="Path_403" data-name="Path 403" class="cls-22" d="M581.14,194.47a.48.48,0,0,1-.22-.12L559,172a.47.47,0,0,1,0-.65.46.46,0,0,1,.65,0l21.93,22.33a.46.46,0,0,1-.44.77Z"/>
              </g>
              <g id="Group_93" data-name="Group 93">
                <path id="Path_404" data-name="Path 404" class="cls-22" d="M637.56,259.11a.43.43,0,0,1-.22-.12l-19.89-20.31a.46.46,0,0,1,0-.65.45.45,0,0,1,.61,0L638,258.35a.47.47,0,0,1,0,.65.46.46,0,0,1-.43.11Z"/>
              </g>
              <g id="Group_94" data-name="Group 94">
                <path id="Path_405" data-name="Path 405" class="cls-22" d="M612.37,233.4a.5.5,0,0,1-.22-.13l-21.63-22.08a.46.46,0,1,1,.64-.66l0,0,21.63,22.08a.46.46,0,0,1-.44.77Z"/>
              </g>
              <g id="Group_95" data-name="Group 95">
                <path id="Path_406" data-name="Path 406" class="cls-22" d="M585.12,205.57a.43.43,0,0,1-.22-.12l-12.53-12.79A.46.46,0,0,1,573,192l12.52,12.78a.46.46,0,0,1,0,.65.43.43,0,0,1-.43.12Z"/>
              </g>
              <g id="Group_96" data-name="Group 96">
                <path id="Path_407" data-name="Path 407" class="cls-22" d="M569.47,189.59a.43.43,0,0,1-.22-.12l-16.7-17.05a.46.46,0,0,1,0-.65.47.47,0,0,1,.65,0h0l16.69,17a.46.46,0,0,1,0,.65.43.43,0,0,1-.43.12Z"/>
              </g>
              <g id="Group_97" data-name="Group 97">
                <path id="Path_408" data-name="Path 408" class="cls-22" d="M631.77,260.83a.48.48,0,0,1-.22-.12l-10.68-10.94a.45.45,0,0,1,0-.64.46.46,0,0,1,.65,0h0l10.68,10.94a.46.46,0,0,1,0,.65.45.45,0,0,1-.43.11Z"/>
              </g>
              <g id="Group_98" data-name="Group 98">
                <path id="Path_409" data-name="Path 409" class="cls-22" d="M618.81,247.57a.61.61,0,0,1-.22-.13l-19-19.47a.46.46,0,0,1,.63-.68l0,0,19,19.47a.47.47,0,0,1,0,.65.49.49,0,0,1-.43.12Z"/>
              </g>
              <g id="Group_99" data-name="Group 99">
                <path id="Path_410" data-name="Path 410" class="cls-22" d="M595.39,223.6a.38.38,0,0,1-.22-.13l-20.68-21.16a.46.46,0,1,1,.65-.64h0l20.69,21.16a.46.46,0,0,1-.44.77Z"/>
              </g>
              <g id="Group_100" data-name="Group 100">
                <path id="Path_411" data-name="Path 411" class="cls-22" d="M570.9,198.54a.48.48,0,0,1-.22-.12L546.79,174a.46.46,0,1,1,.62-.67l0,0,23.9,24.45a.47.47,0,0,1,0,.66.45.45,0,0,1-.43.11Z"/>
              </g>
              <g id="Group_101" data-name="Group 101">
                <path id="Path_412" data-name="Path 412" class="cls-22" d="M547,174.09a.45.45,0,0,1-.22-.13l-1.07-1.09a.47.47,0,0,1,0-.65.46.46,0,0,1,.63,0l1.07,1.09a.46.46,0,0,1-.44.77Z"/>
              </g>
              <path id="Path_413" data-name="Path 413" class="cls-23" d="M560.08,197.61l32.6,34.33-12.17,2.32-33.1-35.64Z"/>
            </g>
            <path id="Path_414" data-name="Path 414" class="cls-24" d="M641.24,269.73S617.5,271.86,610,269c-8-3.1-24.47-21.39-24.47-21.39L507.4,162.75l-2.13-.1L608.41,275.51l55.24-7-1.12-1.15Z"/>
          </g>
        </g>
        <g id="headphones">
          <g id="Group_108" data-name="Group 108">
            <path id="Path_415" data-name="Path 415" class="cls-25" d="M311.47,77.4s-20.92-7.91-39.83,1.73-19.29,24.65-19.48,31a64.49,64.49,0,0,0,1.5,15.43l-5.32.86a47.31,47.31,0,0,1,6.9-40.11c13.92-19.63,39.13-17.81,46.38-16.64a47.1,47.1,0,0,1,12.78,4Z"/>
            <path id="Path_416" data-name="Path 416" class="cls-26" d="M257.52,88.14c8.42-11.64,22.25-16.77,36-19.1-10.79-.12-27.74,2.46-38.26,17.3a47.28,47.28,0,0,0-6.91,40.1l2.19-.35C246.75,113.7,249.72,98.92,257.52,88.14Z"/>
            <path id="Path_417" data-name="Path 417" class="cls-27" d="M255.77,87.22c13.91-19.63,39.12-17.81,46.37-16.64A48.48,48.48,0,0,1,314,74.19l.37-.46a47,47,0,0,0-12.78-4c-7.24-1.17-32.45-3-46.37,16.64a47.32,47.32,0,0,0-6.92,40.11l.75-.12C247.68,121.37,244,103.87,255.77,87.22Z"/>
            <g id="Group_106" data-name="Group 106">
              <path id="Path_421" data-name="Path 421" class="cls-25" d="M326.68,94.27s5.54-3.2,9.59-1.63,14.08,12,17.2,16.45,4.59,7.33,2.5,11.63-3.71,5.61-3.71,5.61-18.16-18.41-21.89-23.42S326.68,94.27,326.68,94.27Z"/>
              <path id="Path_422" data-name="Path 422" class="cls-25" d="M326.68,94.27s5.54-3.2,9.59-1.63,14.08,12,17.2,16.45,4.59,7.33,2.5,11.63-3.71,5.61-3.71,5.61-18.16-18.41-21.89-23.42S326.68,94.27,326.68,94.27Z"/>
              <path id="Path_423" data-name="Path 423" class="cls-28" d="M338.4,93.87a10.81,10.81,0,0,0-2.14-1.23c-4.05-1.57-9.58,1.63-9.58,1.63a12.66,12.66,0,0,0,1.59,5.29C330.76,96.44,334.46,94.74,338.4,93.87Z"/>
              <path id="Path_424" data-name="Path 424" class="cls-12" d="M319.74,96.3s-6.57,1.14-9.54,4.91-3.46,6.59,9,20.23S334,141,341.85,141.07s8.85-11.92,8.85-11.92-9.82-18.47-16.29-24.23A49.42,49.42,0,0,0,319.74,96.3Z"/>
              <path id="Path_425" data-name="Path 425" class="cls-29" d="M327.92,124.46c4.52,5.53,8.31,10.09,11.65,16.41a12.05,12.05,0,0,0,1.8.17c-5.29-12-13.75-24.54-24.69-31.76-2-1.32-4.1-2-3-4.62,1.41-3.34,6-5.39,9.87-6.74-2.28-1.08-3.84-1.63-3.84-1.63s-6.57,1.15-9.54,4.91a7.2,7.2,0,0,0-1.74,5.18,27.39,27.39,0,0,1,6.51,4.34C320.18,114.45,324.08,119.75,327.92,124.46Z"/>
              <path id="Path_426" data-name="Path 426" class="cls-25" d="M326.43,93.2a115.65,115.65,0,0,1,17.64,16.91c8.48,10.46,10.15,14.75,10.15,14.75a15,15,0,0,1-1.57,4,25.54,25.54,0,0,1-2.52,3.33s-11.46-16-19.31-24.36S318.5,96.63,318.5,96.63s.81-1,4.19-2.5A14.24,14.24,0,0,1,326.43,93.2Z"/>
              <path id="Path_427" data-name="Path 427" class="cls-27" d="M341.71,108.3A85.54,85.54,0,0,1,354,125.83c.16-.57.26-1,.26-1s-1.67-4.3-10.15-14.76a114.72,114.72,0,0,0-17.65-16.9s-.52.05-1.26.19C331.3,96.94,337.08,103.17,341.71,108.3Z"/>
              <path id="Path_428" data-name="Path 428" class="cls-12" d="M308.45,105.62c.2,2.94,2.92,7.24,10.75,15.82,11.85,12.95,14.53,19,21.52,19.57C332.16,127.27,322.54,114,308.45,105.62Z"/>
              <path id="Path_429" data-name="Path 429" class="cls-12" d="M321.77,81.54a15.8,15.8,0,0,1,7.88,6.35c3,4.83,4.48,11.76,6.52,17.63s2.64,10,4.23,10.16c2.55.24,2-2.1.11-7.71s-6-18.55-6.74-20.28a15.44,15.44,0,0,0-5.89-6.46,31.28,31.28,0,0,0-5.67-2.61Z"/>
              <path id="Path_430" data-name="Path 430" class="cls-10" d="M310.91,70.22,307.74,78s11.08,5.34,14.94,4.74,3.93-5-.82-7.32C319.19,74.12,310.91,70.22,310.91,70.22Z"/>
            </g>
            <g id="Group_107" data-name="Group 107">
              <path id="Path_431" data-name="Path 431" class="cls-25" d="M266,141.64s-4.29,4.75-3.6,9,8.77,16.27,12.49,20.26,6.21,6,10.86,4.87,6.27-2.46,6.27-2.46-14.22-21.6-18.34-26.3S266,141.64,266,141.64Z"/>
              <path id="Path_432" data-name="Path 432" class="cls-25" d="M266,141.64s-4.29,4.75-3.6,9,8.77,16.27,12.49,20.26,6.21,6,10.86,4.87,6.27-2.46,6.27-2.46-14.22-21.6-18.34-26.3S266,141.64,266,141.64Z"/>
              <path id="Path_433" data-name="Path 433" class="cls-28" d="M271.21,162.67c-4.37-6.63-6.55-12.71-.5-18.44a12.61,12.61,0,0,0-4.75-2.59s-4.29,4.75-3.6,9,8.77,16.27,12.49,20.26c2.82,3,4.93,4.92,7.82,5.16C278,172.48,274.19,167.19,271.21,162.67Z"/>
              <path id="Path_434" data-name="Path 434" class="cls-12" d="M269.39,135.28s2.49-6.18,6.79-8.31,7.17-2,17.9,13,16.09,18.54,14.47,26.25-13.5,6.16-13.5,6.16-16-13.47-20.29-21A49.32,49.32,0,0,1,269.39,135.28Z"/>
              <path id="Path_435" data-name="Path 435" class="cls-29" d="M279,133.61l.65-.59a11.35,11.35,0,0,1,1.61-1.13,17.31,17.31,0,0,1-2-5.88,8.13,8.13,0,0,0-3,1c-4.3,2.13-6.79,8.31-6.79,8.31a51.25,51.25,0,0,0,2.45,9.68c.13-.46.29-.91.45-1.37C272.81,139.69,275.68,135.89,279,133.61Z"/>
              <path id="Path_436" data-name="Path 436" class="cls-25" d="M265,141.18A115.37,115.37,0,0,0,277.81,162c8.46,10.48,12.31,13,12.31,13a15.58,15.58,0,0,0,4.29-.69,26.07,26.07,0,0,0,3.78-1.78s-13.27-14.55-19.79-24-8.42-14.4-8.42-14.4-1.2.58-3.33,3.58A14.45,14.45,0,0,0,265,141.18Z"/>
              <path id="Path_437" data-name="Path 437" class="cls-28" d="M272.11,138.48a40.52,40.52,0,0,1-2.13-4.34s-1.2.57-3.33,3.58a14.21,14.21,0,0,0-1.68,3.46s1.42,3.07,3.85,7.33A13.06,13.06,0,0,1,272.11,138.48Z"/>
              <path id="Path_438" data-name="Path 438" class="cls-27" d="M276.54,159.28a85.76,85.76,0,0,0,14.58,15.63c-.59.05-1,.06-1,.06s-3.85-2.53-12.31-13A115.37,115.37,0,0,1,265,141.18s.16-.51.45-1.2C267.61,146.72,272.49,153.67,276.54,159.28Z"/>
              <path id="Path_439" data-name="Path 439" class="cls-30" d="M280.86,126.19c2.84.81,6.48,4.36,13.23,13.82,10.2,14.29,15.52,18.16,14.64,25.13C297.08,153.9,286.08,141.71,280.86,126.19Z"/>
              <path id="Path_440" data-name="Path 440" class="cls-12" d="M254.53,134.18a15.83,15.83,0,0,0,4.57,9c4.09,3.92,10.56,6.83,15.88,10.05s9.22,4.68,9,6.26c-.29,2.54-2.47,1.55-7.55-1.49s-16.9-9.72-18.43-10.84a15.47,15.47,0,0,1-5.09-7.1,31.12,31.12,0,0,1-1.37-6.1Z"/>
              <path id="Path_441" data-name="Path 441" class="cls-10" d="M245.73,121.2l8.28-1.47s2.91,12,1.51,15.6-5.7,2.79-7-2.34C247.82,130.11,245.73,121.2,245.73,121.2Z"/>
            </g>
          </g>
          <path id="Path_442" data-name="Path 442" class="cls-26" d="M325.25,98.5c.61-1.66,2.39-2.39,4.05-3-1.75-1.45-2.87-2.3-2.87-2.3a14.63,14.63,0,0,0-3.74.92c-3.38,1.46-4.19,2.51-4.19,2.51a62.22,62.22,0,0,1,8,6.81C325.39,102,324.62,100.24,325.25,98.5Z"/>
          <path id="Path_443" data-name="Path 443" class="cls-29" d="M322.68,82.75a3.73,3.73,0,0,0,1.95-.87,19.34,19.34,0,0,1-9.22-3.9c-2.79-2.23-3.43-4-2.69-6.9l-1.81-.86L307.75,78S318.82,83.36,322.68,82.75Z"/>
          <path id="Path_444" data-name="Path 444" class="cls-29" d="M249.67,120.5l-3.94.7s2.08,8.91,2.81,11.79c.84,3.35,3,4.86,4.72,4.51C250.18,133.09,249.68,125.24,249.67,120.5Z"/>
        </g>
        <g id="wifi" class="cls-31">
          <path id="Path_445" data-name="Path 445" class="cls-32" d="M455.87,248.21l9.12,2.1s3.27-11.06,14.41-14.22c12.62-3.57,18.94,2,18.94,2l3.55-7.38a28.76,28.76,0,0,0-28-2C457.84,236.13,455.87,248.21,455.87,248.21Z"/>
          <path id="Path_446" data-name="Path 446" class="cls-32" d="M469.14,251.62l6.67,1.57a9.6,9.6,0,0,1,7.36-8.58c7.55-2.05,10.65,1.4,10.65,1.4l2.63-4.95s-6.27-4.84-15.52-1.93C470.26,242.48,469.14,251.62,469.14,251.62Z"/>
          <path id="Path_447" data-name="Path 447" class="cls-32" d="M490.14,251.7a4.15,4.15,0,1,1-4.74-3.44A4.13,4.13,0,0,1,490.14,251.7Z"/>
          <path id="Path_448" data-name="Path 448" class="cls-33" d="M489.5,250.07a5.88,5.88,0,0,1-1.44,3.9,4.36,4.36,0,0,1-5.26.93,4.13,4.13,0,0,0,6.7-4.83Z"/>
          <path id="Path_449" data-name="Path 449" class="cls-33" d="M494.23,243.77a11.79,11.79,0,0,0-1.67-.74,11.59,11.59,0,0,0-3.61-.89,14.85,14.85,0,0,0-10.24,3.27,16.11,16.11,0,0,0-3.72,4.17c-1.24,1.94-3.52,1.06-5.47.43a9.67,9.67,0,0,0-.38,1.61l6.67,1.57a9.6,9.6,0,0,1,7.36-8.58c7.55-2.05,10.65,1.39,10.65,1.39l1-1.84C494.6,244,494.4,243.88,494.23,243.77Z"/>
          <path id="Path_450" data-name="Path 450" class="cls-33" d="M500.21,232.6c-.9.73-1.91,1.8-3.13,2a11.41,11.41,0,0,1-3.79-.71A27.77,27.77,0,0,0,473,237.11a35.33,35.33,0,0,0-7.52,6.44c-.91,1-1.66,2.3-3.12,2.46a11,11,0,0,1-5.45-1,16.1,16.1,0,0,0-1,3.24l9.12,2.1s3.27-11.07,14.41-14.22c12.62-3.57,18.94,2,18.94,2l3.35-7A10.42,10.42,0,0,1,500.21,232.6Z"/>
        </g>
        <g id="music" class="cls-9">
          <path id="Path_451" data-name="Path 451" class="cls-32" d="M430,117.44a13.26,13.26,0,0,0,1.45-2.32c1.46-2.78,3.15-5.45,4.75-8.16.43-.73.86-1.45,1.28-2.18l2.31-3.92-11.11-8.57-7.08,12.79a3.86,3.86,0,0,0-3.4-3.47,4.24,4.24,0,0,0-.59,8.4c2.79.2,4-2.82,5.16-4.78l1.77-2.94,2.88-4.77s.25-.41.24-.41l8.56,6.11-5.31,11.45a3.94,3.94,0,0,0-3.45-4,4.24,4.24,0,0,0-.59,8.4A3.68,3.68,0,0,0,430,117.44Z"/>
          <path id="Path_452" data-name="Path 452" class="cls-34" d="M424.5,102.28l2.88-4.77s.25-.4.24-.41l8.56,6.12-2.47,5.33.89-1.6a29.37,29.37,0,0,1,2.41-4,19.81,19.81,0,0,1-2-1.25c-1.12-.77-2.2-1.56-3.33-2.29-.91-.59-1.71-1.38-2.65-1.9a5,5,0,0,0-1.36-.66c-.4-.08-.37.07-.57.44-.45.79-1,1.57-1.46,2.33s-.93,1.61-1.44,2.37a37.47,37.47,0,0,1-3.41,4.79,5.51,5.51,0,0,1-2.2,1.41,3.56,3.56,0,0,1-2.09.25,3.38,3.38,0,0,1-2.17-1.21,3.76,3.76,0,0,0,3.25,2.77c2.8.2,4-2.82,5.16-4.78Z"/>
          <path id="Path_453" data-name="Path 453" class="cls-34" d="M432.33,113.44a8.23,8.23,0,0,1-2.26,2.44c-1.84,1.2-5.62,1.36-6.49-1.15a4,4,0,0,1-.16-.59c0,.13,0,.27-.05.42a4,4,0,0,0,3.45,4.46,3.69,3.69,0,0,0,3.14-1.59,13.18,13.18,0,0,0,1.45-2.31C431.71,114.56,432,114,432.33,113.44Z"/>
        </g>
        <g id="location" class="cls-35">
          <path id="Path_454" data-name="Path 454" class="cls-32" d="M479.55,416.64a9.88,9.88,0,0,0-10.69,9c0,.14,0,.29,0,.44a6,6,0,0,0,0,.72h0a11.56,11.56,0,0,0,.3,1.59c0,.12.06.24.1.36a45.18,45.18,0,0,0,4.07,9.07c.28.5.56,1,.83,1.45.12.22.24.44.37.64l.36.6c.23.39.45.76.67,1.1.95,1.53,1.61,2.51,1.61,2.51l.09-.09.08-.08c.36-.4,1.25-1.35,2.37-2.63l.85-1c1.46-1.73,3.17-3.85,4.63-6,.15-.21.29-.43.43-.64a24.29,24.29,0,0,0,2.35-4.27c.06-.17.12-.33.17-.49a0,0,0,0,0,0,0l0,0a6.44,6.44,0,0,0,.36-1.58A9.88,9.88,0,0,0,479.55,416.64Zm-.42,5a4.85,4.85,0,1,1-5.25,4.41A4.84,4.84,0,0,1,479.13,421.66Z"/>
          <path id="Path_455" data-name="Path 455" class="cls-34" d="M477.18,444.14s9.05-9.44,11-15.23a.39.39,0,0,1-.06.11,29.24,29.24,0,0,1-2.61,3.91c-1.53,2-5,7.15-8.1,5.46a11.53,11.53,0,0,1-3.46-3.1,30.89,30.89,0,0,1-5.08-8.49C469.51,432.73,477.18,444.14,477.18,444.14Z"/>
        </g>
      </g>
    </g>
  </g>
</svg>
