<svg xmlns="http://www.w3.org/2000/svg" viewBox="0 0 1920.66 1175.18">
  <defs>
    <style>
      .cls-1 {
        fill: #031224;
        stroke: #1d1d1b;
        stroke-miterlimit: 10;
        stroke-width: 2.66px;
      }
    </style>
  </defs>
  <g id="Layer_2" data-name="Layer 2">
    <g id="right_board" data-name="right board">
      <path class="cls-1" d="M1918.12,973.57c-83.77.43-172.94,10.23-272.17,30-51.45,10.22-102.92,22.52-153.91,35.58-39.63,10.16-79,20.79-117.74,31.27-101.38,27.38-206.22,55.69-312.27,74.63a1880.85,1880.85,0,0,1-271.5,27.91q-30.37.94-60.91.93a1995.72,1995.72,0,0,1-213.38-11.44,1891.65,1891.65,0,0,1-265.58-47.68c-79.54-20.36-177-43.72-248-73.58V940.65H2.53S-.17,214,2.53,214c83.79-.47,172.94-10.87,272.18-31.81,51.45-10.85,102.92-23.91,153.91-37.78,39.64-10.79,79-22.08,117.73-33.19C647.74,82.12,752.58,52.05,858.63,32a1775.72,1775.72,0,0,1,271.5-29.63q30.39-1,60.91-1a1878.45,1878.45,0,0,1,213.39,12.15A1792.52,1792.52,0,0,1,1670,64.1c79.53,21.61,177,46.41,248,78.11v146.9h.12S1920.83,973.55,1918.12,973.57Z"/>
    </g>
  </g>
</svg>
