<svg xmlns="http://www.w3.org/2000/svg" xmlns:xlink="http://www.w3.org/1999/xlink" viewBox="0 0 214.75 200">
  <defs>
    <style>
      .cls-1 {
        fill: none;
      }

      .cls-2 {
        clip-path: url(#clip-path);
      }

      .cls-3 {
        fill: #001024;
      }

      .cls-4 {
        fill: #e69049;
      }

      .cls-5 {
        fill: #c76e30;
      }

      .cls-6 {
        fill: #f0b884;
      }

      .cls-7 {
        fill: #da9258;
      }

      .cls-8 {
        fill: #4b88e7;
      }

      .cls-9 {
        fill: #276dcc;
      }

      .cls-10 {
        fill: #db415e;
      }

      .cls-11 {
        fill: #bc294a;
      }

      .cls-12 {
        fill: #e8ecf1;
      }
    </style>
    <clipPath id="clip-path" transform="translate(6.84)">
      <circle class="cls-1" cx="100" cy="100" r="100"/>
    </clipPath>
  </defs>
  <g id="Layer_2" data-name="Layer 2">
    <g id="right_board" data-name="right board">
      <g class="cls-2">
        <g id="handshake">
          <circle id="Ellipse_166" data-name="Ellipse 166" class="cls-3" cx="106.84" cy="100" r="100"/>
          <g id="handshake-2">
            <path id="Path_517" data-name="Path 517" class="cls-4" d="M168.59,111.07l-5.46-44.31L152.91,68h0L133.09,56.86a12,12,0,0,0-7-1.49l-31.29,2.9a11.93,11.93,0,0,0-9.23,5.89l-22.05,38a5.25,5.25,0,0,0,1.9,7.17,4.63,4.63,0,0,0,.78.37l.9.35a20.14,20.14,0,0,0,5.3,1.18l-2.79,2.43-5.59,4.87-15.9,13.57a6.78,6.78,0,0,0-.66,9.58h0l1.61,1.84a8.74,8.74,0,0,0,12.32.84l6.08,7a8.71,8.71,0,0,0,12.29.85h0l6.07,7a8.75,8.75,0,0,0,12.33.84l3.3,2.86a8.74,8.74,0,0,0,12.32.84l4.49-3.91L156,130.38l0,0,14.87,0Z" transform="translate(6.84)"/>
            <path id="Path_518" data-name="Path 518" class="cls-5" d="M152.43,118.93l0,0-37.7,29.36-4.49,3.92a8.73,8.73,0,0,1-12.32-.85l-3.3-2.85a8.73,8.73,0,0,1-12.32-.85l-6.08-7a8.71,8.71,0,0,1-12.29-.82l0,0-6.08-7a8.72,8.72,0,0,1-10.81.51,6.8,6.8,0,0,0,.54,8.22l1.61,1.85a8.74,8.74,0,0,0,12.32.84l6.07,7a8.73,8.73,0,0,0,12.3.86l0,0,6.07,7a8.73,8.73,0,0,0,12.32.85l3.3,2.85a8.75,8.75,0,0,0,12.33.84l4.48-3.91L156,130.39l0,0,14.88,0L169.31,117Z" transform="translate(6.84)"/>
            <path id="Path_519" data-name="Path 519" class="cls-6" d="M159.3,138.1l-20.2-17.42-5.62-4.84-4-3.46-17.29-14.9,2-17a11.72,11.72,0,0,0-8.51-12.67L68,57.39a8.72,8.72,0,0,0-10.08,4.43l-4.74,9.25L32.81,69.69,27.61,114,25.34,133.3l19.8,1.32,0,0,41.36,35.65,4.51,3.88a8.73,8.73,0,0,0,12.31-.91l6-7a8.73,8.73,0,0,0,12.32-.92l6-7a8.71,8.71,0,0,0,12.29-.89l0,0,6-7a8.74,8.74,0,0,0,12.31-.9l1.6-1.86a6.79,6.79,0,0,0-.7-9.58Z" transform="translate(6.84)"/>
            <g id="Group_138" data-name="Group 138">
              <path id="Path_520" data-name="Path 520" class="cls-7" d="M159.3,138.1l-6.16-5.31a7.21,7.21,0,0,1-.3,9.05l-1.7,2a9.26,9.26,0,0,1-13.07,1l-6.41,7.44a9.24,9.24,0,0,1-13,1h0l-6.4,7.43a9.27,9.27,0,0,1-13.07,1L92.72,169a9.22,9.22,0,0,1-4.39,2.83l2.72,2.36a8.73,8.73,0,0,0,12.32-.92l6-7a8.74,8.74,0,0,0,12.32-.91l6-7a8.72,8.72,0,0,0,12.3-.89v0l6-7a8.74,8.74,0,0,0,12.31-.91l1.6-1.86a6.79,6.79,0,0,0-.7-9.58Z" transform="translate(6.84)"/>
              <path id="Path_521" data-name="Path 521" class="cls-7" d="M148.14,148.12l-11.07-9.55a3.14,3.14,0,1,0-4.18,4.7l.07.06,11,9.53,2.08-2.41a8.86,8.86,0,0,0,2.74,1.59A3.15,3.15,0,0,0,148.14,148.12Z" transform="translate(6.84)"/>
              <path id="Path_522" data-name="Path 522" class="cls-7" d="M130.44,160a3.14,3.14,0,0,0-.66-4l-9.94-8.57a3.14,3.14,0,1,0-4.18,4.7l.07.06,10,8.58h0l2-2.39A8.67,8.67,0,0,0,130.44,160Z" transform="translate(6.84)"/>
            </g>
            <g id="Group_139" data-name="Group 139">
              <path id="Path_523" data-name="Path 523" class="cls-4" d="M46.17,134.58l-2.4,3.16a7.84,7.84,0,0,0,1.51,11h0a7.84,7.84,0,0,0,11-1.52l2.4-3.16a7.83,7.83,0,0,0-1.52-11h0a7.82,7.82,0,0,0-11,1.52Z" transform="translate(6.84)"/>
              <path id="Path_524" data-name="Path 524" class="cls-4" d="M60.76,141.23l-4.51,6a7.82,7.82,0,0,0,1.51,11h0a7.83,7.83,0,0,0,11-1.52l4.51-6a7.83,7.83,0,0,0-1.51-11h0a7.84,7.84,0,0,0-11,1.51Z" transform="translate(6.84)"/>
              <path id="Path_525" data-name="Path 525" class="cls-4" d="M74.88,148.52l-6.15,8.12a7.83,7.83,0,0,0,1.51,11h0a7.84,7.84,0,0,0,11-1.51L87.36,158a7.83,7.83,0,0,0-1.52-11h0a7.82,7.82,0,0,0-11,1.52Z" transform="translate(6.84)"/>
              <path id="Path_526" data-name="Path 526" class="cls-4" d="M87.71,157.5l-6.5,8.59a7.83,7.83,0,0,0,1.51,11h0a7.81,7.81,0,0,0,11-1.51h0l6.5-8.59a7.84,7.84,0,0,0-1.51-11h0a7.83,7.83,0,0,0-11,1.52Z" transform="translate(6.84)"/>
              <path id="Path_527" data-name="Path 527" class="cls-4" d="M152.92,68,133.1,56.86a11.9,11.9,0,0,0-7-1.48L94.85,58.27a11.94,11.94,0,0,0-9.22,5.89l-22.06,38a5.25,5.25,0,0,0,1.9,7.17,5.62,5.62,0,0,0,.78.38l.9.34a19.62,19.62,0,0,0,22.48-6.4l8.45-11s20.32,23.52,42.68-4" transform="translate(6.84)"/>
            </g>
            <path id="Path_528" data-name="Path 528" class="cls-8" d="M207.88,136.26l-10.36-84.2A3.14,3.14,0,0,0,194,49.32l-24.24,3a11.52,11.52,0,0,0-10,12.83l8.32,67.61a11.51,11.51,0,0,0,12.82,10h0l24.24-3A3.13,3.13,0,0,0,207.88,136.26Z" transform="translate(6.84)"/>
            <path id="Path_529" data-name="Path 529" class="cls-9" d="M207.88,136.26,206.75,127a3.34,3.34,0,0,1-2.32,1.42L179,131.56a12,12,0,0,1-11.78-5.71l.85,6.89a11.5,11.5,0,0,0,12.81,10h0l24.24-3a3.15,3.15,0,0,0,2.73-3.51Z" transform="translate(6.84)"/>
            <path id="Path_530" data-name="Path 530" class="cls-10" d="M31.29,52.3l-24.23-3a3.14,3.14,0,0,0-3.5,2.74h0l-10.37,84.2a3.15,3.15,0,0,0,2.74,3.5l24.24,3a11.5,11.5,0,0,0,12.82-10h0l8.33-67.61A11.52,11.52,0,0,0,31.29,52.3Z" transform="translate(6.84)"/>
            <path id="Path_531" data-name="Path 531" class="cls-11" d="M-6.82,136.26-5.68,127a3.34,3.34,0,0,0,2.32,1.42l25.41,3.12a12,12,0,0,0,11.78-5.71L33,132.74a11.5,11.5,0,0,1-12.81,10h0l-24.24-3A3.15,3.15,0,0,1-6.82,136.26Z" transform="translate(6.84)"/>
            <g id="Group_140" data-name="Group 140">
              <circle id="Ellipse_153" data-name="Ellipse 153" class="cls-12" cx="194.61" cy="122.78" r="6.08"/>
              <circle id="Ellipse_154" data-name="Ellipse 154" class="cls-12" cx="19.79" cy="122.78" r="6.08"/>
            </g>
          </g>
        </g>
      </g>
    </g>
  </g>
</svg>
