<svg xmlns="http://www.w3.org/2000/svg" viewBox="0 0 194 194">
  <defs>
    <style>
      .cls-1 {
        fill: #001024;
      }

      .cls-2 {
        fill: #30577a;
      }

      .cls-3 {
        fill: #244562;
      }

      .cls-4 {
        fill: #40729a;
      }

      .cls-5 {
        fill: #39648a;
      }

      .cls-6 {
        fill: #e8f1fd;
      }

      .cls-7 {
        fill: #f7c655;
      }

      .cls-8 {
        fill: #e2a436;
      }

      .cls-9 {
        fill: #f9d96e;
      }
    </style>
  </defs>
  <g id="Layer_2" data-name="Layer 2">
    <g id="right_board" data-name="right board">
      <g id="hat">
        <circle id="Ellipse_168" data-name="Ellipse 168" class="cls-1" cx="97" cy="97" r="97"/>
        <g id="graduation">
          <path id="Path_541" data-name="Path 541" class="cls-2" d="M52.11,116.25l1.47,3s23.28,18.9,43.22,18.9,43.32-18.9,43.32-18.9l1.36-3h0a214,214,0,0,1-6.91-25.57l-4.26-2.4H62.66L59,90.68a216,216,0,0,1-6.92,25.57Z"/>
          <path id="Path_542" data-name="Path 542" class="cls-3" d="M71.88,89.31l1.57-1H62.66L59,90.68a214.93,214.93,0,0,1-6.92,25.57h0l1.47,3a105.93,105.93,0,0,0,9.14,6.45C66,114.84,69.3,102.31,71.88,89.31Z"/>
          <path id="Path_543" data-name="Path 543" class="cls-4" d="M173.12,67.67,100.69,43.19a12.19,12.19,0,0,0-7.78,0L20.47,67.67a2.21,2.21,0,0,0-.26,4.08l71.26,34.74a12.14,12.14,0,0,0,10.65,0l71.26-34.74a2.21,2.21,0,0,0-.26-4.08Z"/>
          <path id="Path_544" data-name="Path 544" class="cls-5" d="M42.14,71.75a2.2,2.2,0,0,1-1-3,2.23,2.23,0,0,1,1.28-1.13l65.36-22.09-7.07-2.39a12.19,12.19,0,0,0-7.78,0L20.47,67.67a2.21,2.21,0,0,0-.26,4.08L91.47,106.5a12.21,12.21,0,0,0,10.65,0l5.64-2.75Z"/>
          <g id="Group_141" data-name="Group 141">
            <path id="Path_545" data-name="Path 545" class="cls-6" d="M156,179.21a2.35,2.35,0,0,1-2.35-2.34l1-93.46A2.47,2.47,0,0,0,152.89,81l-53-14a2.35,2.35,0,0,1,1.2-4.54l53,14a7.16,7.16,0,0,1,5.33,6.92l-1,93.45a2.35,2.35,0,0,1-2.34,2.35Z"/>
          </g>
          <path id="Path_546" data-name="Path 546" class="cls-7" d="M159.86,173.94h-8.22l-1,15.21a2.15,2.15,0,0,0,2,2.32h6.08a2.16,2.16,0,0,0,2.12-2.19v-.14Z"/>
          <path id="Path_547" data-name="Path 547" class="cls-8" d="M156,189.14l1-15.21h-5.35l-1,15.21a2.16,2.16,0,0,0,2,2.33h5.49a2.17,2.17,0,0,1-2.13-2.19C156,189.23,156,189.19,156,189.14Z"/>
          <path id="Path_548" data-name="Path 548" class="cls-9" d="M157.65,163h-3.8a3.46,3.46,0,0,0-3.45,3.45v6.85a1.12,1.12,0,0,0,1.12,1.12H160a1.12,1.12,0,0,0,1.13-1.12v-6.85A3.46,3.46,0,0,0,157.65,163Z"/>
          <path id="Path_549" data-name="Path 549" class="cls-7" d="M156.45,173.3v-6.85a3.48,3.48,0,0,1,2.33-3.26,3.67,3.67,0,0,0-1.13-.19h-3.8a3.46,3.46,0,0,0-3.45,3.45v6.85a1.12,1.12,0,0,0,1.12,1.12h6.06a1.13,1.13,0,0,1-1.13-1.12Z"/>
          <path id="Path_550" data-name="Path 550" class="cls-5" d="M97.28,58.26A7.77,7.77,0,0,0,89,65.54c0,.16,0,.32,0,.48v0a3.67,3.67,0,0,0,3.69,3.6h8.18a3.68,3.68,0,0,0,3.7-3.64c0-.13,0-.26,0-.38a7.83,7.83,0,0,0-7.29-7.39Z"/>
          <path id="Path_551" data-name="Path 551" class="cls-2" d="M96.07,66.06v0a7.79,7.79,0,0,1,4.24-6.93,7.61,7.61,0,0,0-3-.83A7.77,7.77,0,0,0,89,65.54c0,.16,0,.32,0,.48v0a3.67,3.67,0,0,0,3.69,3.6h7.05A3.66,3.66,0,0,1,96.07,66.06Z"/>
          <path id="Path_552" data-name="Path 552" class="cls-9" d="M141.49,116.25c-8.17,6.71-21.44,14.22-35.78,18.84a29.3,29.3,0,0,1-17.82,0c-14.31-4.61-27.58-12.1-35.78-18.84-.78,2.34-1.5,4.38-2.11,6a7,7,0,0,0,2.23,7.86,116.6,116.6,0,0,0,35.66,18.74,29.15,29.15,0,0,0,17.82,0,116.6,116.6,0,0,0,35.66-18.74,7,7,0,0,0,2.22-7.86C143,120.63,142.27,118.59,141.49,116.25Z"/>
          <path id="Path_553" data-name="Path 553" class="cls-7" d="M63.25,123.94a90.46,90.46,0,0,1-11.14-7.7c-.78,2.35-1.51,4.39-2.11,6a7,7,0,0,0,2.23,7.87c2.47,1.94,5,3.72,7.45,5.34C60.84,131.89,62,128,63.25,123.94Z"/>
        </g>
      </g>
    </g>
  </g>
</svg>
