<svg xmlns="http://www.w3.org/2000/svg" viewBox="0 0 30 29.99">
  <defs>
    <style>
      .cls-1 {
        fill: #fff;
      }
    </style>
  </defs>
  <g id="Layer_2" data-name="Layer 2">
    <g id="right_board" data-name="right board">
      <g id="insta">
        <path id="insta-2" class="cls-1" d="M15,7.3A7.69,7.69,0,1,0,22.7,15,7.69,7.69,0,0,0,15,7.3ZM15,20a5,5,0,1,1,5-5,5,5,0,0,1-5,5Zm9.8-13A1.8,1.8,0,1,1,23,5.2,1.8,1.8,0,0,1,24.81,7V7ZM29.9,8.81a8.86,8.86,0,0,0-2.42-6.28A8.9,8.9,0,0,0,21.19.11C18.72,0,11.29,0,8.82.11A8.89,8.89,0,0,0,2.53,2.52,8.88,8.88,0,0,0,.11,8.8C0,11.28,0,18.7.11,21.18a8.86,8.86,0,0,0,2.42,6.28,8.92,8.92,0,0,0,6.28,2.42c2.48.14,9.9.14,12.38,0a8.86,8.86,0,0,0,6.28-2.42,8.93,8.93,0,0,0,2.43-6.28c.14-2.48.14-9.9,0-12.37Zm-3.2,15a5.12,5.12,0,0,1-2.85,2.85c-2,.78-6.66.6-8.84.6s-6.88.17-8.84-.6a5.1,5.1,0,0,1-2.86-2.85c-.78-2-.6-6.66-.6-8.84s-.17-6.88.6-8.84A5.1,5.1,0,0,1,6.16,3.3c2-.78,6.66-.6,8.84-.6s6.88-.17,8.84.6A5.1,5.1,0,0,1,26.7,6.15c.78,2,.6,6.66.6,8.84s.18,6.88-.6,8.84Z"/>
      </g>
    </g>
  </g>
</svg>
