<svg xmlns="http://www.w3.org/2000/svg" viewBox="0 0 356.9 57.04">
  <defs>
    <style>
      .cls-1 {
        isolation: isolate;
      }

      .cls-2, .cls-6 {
        fill: #df213b;
      }

      .cls-3 {
        fill: #ea9e23;
      }

      .cls-4 {
        fill: #2bd6c5;
      }

      .cls-5 {
        fill: #208fbc;
      }

      .cls-5, .cls-6 {
        mix-blend-mode: multiply;
      }
    </style>
  </defs>
  <g class="cls-1">
    <g id="Layer_2" data-name="Layer 2">
      <g id="Layer_1-2" data-name="Layer 1">
        <g id="code_lab_logo" data-name="code lab logo">
          <path class="cls-2" d="M26.92,2.29c12.73,0,22.34,7.17,25.39,18.76H38a11.8,11.8,0,0,0-11.21-6.87c-8,0-13.5,5.95-13.5,15.41S18.76,45,26.77,45A11.79,11.79,0,0,0,38,38.13H52.31C49.26,49.72,39.65,56.81,26.92,56.81,11.13,56.81,0,45.6,0,29.59S11.13,2.29,26.92,2.29Z"/>
          <path class="cls-3" d="M79.69,57c-12.5,0-22-8.39-22-21.88s9.69-21.89,22.12-21.89S102,21.66,102,35.16,92.2,57,79.69,57Zm0-11.28c4.65,0,9-3.44,9-10.6s-4.27-10.6-8.84-10.6c-4.73,0-8.85,3.35-8.85,10.6S75,45.76,79.69,45.76Z"/>
          <path class="cls-4" d="M125,13.27c-10.51,0-19,9.8-19,21.89S114.44,57,125,57s19-9.8,19-21.88S135.47,13.27,125,13.27Zm3.93,32.41c-4.88,0-9.3-3.81-9.3-10.6s4.42-10.45,9.3-10.45,9.31,3.74,9.31,10.53S133.84,45.68,128.88,45.68Z"/>
          <polyline class="cls-5" points="138.19 19.75 138.19 0 151.23 0 151.23 56.43 138.19 56.43 138.19 50.33"/>
          <path class="cls-4" d="M338,13.27c10.43,0,18.89,9.8,18.89,21.89S348.44,57,338,57s-18.9-9.8-18.9-21.88S327.57,13.27,338,13.27Zm-3.9,32.41c4.84,0,9.23-3.81,9.23-10.6S339,24.63,334.11,24.63s-9.24,3.74-9.24,10.53S329.19,45.68,334.11,45.68Z"/>
          <polyline class="cls-5" points="324.87 19.75 324.87 0 311.93 0 311.93 56.43 324.87 56.43 324.87 50.33"/>
          <path class="cls-3" d="M276.82,13.27c-10.51-.08-19.11,9.65-19.21,21.74S266,57,276.48,57s19.12-9.65,19.21-21.74S287.33,13.35,276.82,13.27Zm3.68,32.44c-4.88,0-9.27-3.89-9.22-10.67s4.5-10.42,9.38-10.38,9.28,3.81,9.22,10.6S285.46,45.75,280.5,45.71Z"/>
          <polyline class="cls-6" points="289.49 18.99 289.49 13.88 302.53 13.88 302.93 56.43 289.88 56.43 289.88 50.33"/>
          <polygon class="cls-3" points="157.5 32 199.93 32 200.03 35.16 199.81 38.28 157.5 38.28 157.33 35.16 157.5 32"/>
          <path class="cls-6" d="M186.69,31c0-4.65-3.66-7.32-8-7.32s-7.55,2.59-8.31,7.32a30.78,30.78,0,0,0-.07,7.24c.45,5.57,3.88,8.16,8.08,8.16a6.94,6.94,0,0,0,6.79-4.12H199C197,50.64,189.44,57,178.84,57c-12.51,0-21.51-8.39-21.51-21.88s8.85-21.89,21.51-21.89c12.43,0,21.19,8.24,21.19,21.2a33.34,33.34,0,0,1-.22,3.81H186.69"/>
          <rect class="cls-2" x="223.83" y="46.46" width="30.12" height="9.97"/>
          <rect class="cls-5" x="223.83" y="2.9" width="13.16" height="53.53"/>
        </g>
      </g>
    </g>
  </g>
</svg>
