<svg xmlns="http://www.w3.org/2000/svg" viewBox="0 0 336.96 53.86">
  <g id="Layer_2" data-name="Layer 2">
    <g id="Layer_1-2" data-name="Layer 1">
      <g>
        <path d="M25.42,2.16c12,0,21.1,6.77,24,17.71H35.86a11.14,11.14,0,0,0-10.59-6.48c-7.56,0-12.74,5.62-12.74,14.55s5.18,14.54,12.74,14.54A11.14,11.14,0,0,0,35.86,36H49.4c-2.88,11-12,17.64-24,17.64C10.51,53.64,0,43.06,0,27.94S10.51,2.16,25.42,2.16Z"/>
        <path d="M75.24,53.86c-11.81,0-20.74-7.92-20.74-20.67s9.15-20.66,20.89-20.66,20.88,7.92,20.88,20.66S87.05,53.86,75.24,53.86Zm0-10.66c4.39,0,8.5-3.24,8.5-10s-4-10-8.35-10c-4.47,0-8.36,3.16-8.36,10S70.78,43.2,75.24,43.2Z"/>
        <path d="M118.08,12.53a14.76,14.76,0,0,1,12.39,6.12V0h12.31V53.28H130.47V47.52c-2.24,3.68-6.49,6.34-12.39,6.34-9.86,0-17.71-8.06-17.71-20.74S108.22,12.53,118.08,12.53Zm3.6,10.73c-4.61,0-8.78,3.45-8.78,9.86s4.17,10,8.78,10,8.79-3.53,8.79-9.94S126.36,23.26,121.68,23.26Z"/>
        <path d="M169.56,53.86c-11.81,0-20.31-7.92-20.31-20.67s8.36-20.66,20.31-20.66c11.74,0,20,7.78,20,20a30,30,0,0,1-.22,3.6H161.5c.43,5.25,3.67,7.7,7.63,7.7A6.56,6.56,0,0,0,175.54,40h13.1C186.7,47.81,179.57,53.86,169.56,53.86Zm-8-24.55H177c0-4.4-3.46-6.92-7.56-6.92S162.29,24.84,161.57,29.31Z"/>
        <path d="M223.63,2.74v41h16.13v9.5H211.32V2.74Z"/>
        <path d="M260.93,12.53c6,0,10.22,2.73,12.38,6.26V13.1h12.31V53.28H273.31V47.6c-2.23,3.52-6.48,6.26-12.46,6.26-9.79,0-17.64-8.06-17.64-20.74S251.06,12.53,260.93,12.53Zm3.6,10.73c-4.61,0-8.79,3.45-8.79,9.86s4.18,10,8.79,10,8.78-3.53,8.78-9.94S269.21,23.26,264.53,23.26Z"/>
        <path d="M319.25,12.53c9.93,0,17.71,7.92,17.71,20.59s-7.85,20.74-17.71,20.74c-5.91,0-10.16-2.66-12.39-6.19v5.61H294.55V0h12.31V18.79C309.09,15.19,313.49,12.53,319.25,12.53Zm-3.68,10.73c-4.61,0-8.78,3.53-8.78,9.93s4.17,9.94,8.78,9.94,8.86-3.6,8.86-10S320.25,23.26,315.57,23.26Z"/>
      </g>
    </g>
  </g>
</svg>
