<svg xmlns="http://www.w3.org/2000/svg" viewBox="0 0 30 30">
  <defs>
    <style>
      .cls-1 {
        fill: #fff;
      }
    </style>
  </defs>
  <g id="Layer_2" data-name="Layer 2">
    <g id="right_board" data-name="right board">
      <g id="pinterest">
        <path id="pinterest-2" class="cls-1" d="M30,15A15,15,0,0,1,15,30a15.24,15.24,0,0,1-4.45-.67,16.94,16.94,0,0,0,1.87-3.94c.18-.7.93-3.56.93-3.56a4,4,0,0,0,3.43,1.72c4.53,0,7.79-4.16,7.79-9.33,0-5-4-8.66-9.25-8.66-6.47,0-9.91,4.34-9.91,9.07,0,2.2,1.17,4.95,3,5.82.28.13.43.07.5-.2s.3-1.23.42-1.7a.47.47,0,0,0-.1-.43A5.87,5.87,0,0,1,8.17,14.7a6.48,6.48,0,0,1,6.46-6.52h.31a5.92,5.92,0,0,1,6.26,5.56,4.87,4.87,0,0,1,0,.54c0,4.05-2.05,6.87-4.72,6.87a2.17,2.17,0,0,1-2.28-2.06,2.35,2.35,0,0,1,.06-.65c.43-1.79,1.24-3.71,1.24-5a1.88,1.88,0,0,0-1.64-2.1h-.26c-1.5,0-2.71,1.55-2.71,3.64a5.47,5.47,0,0,0,.44,2.22s-1.48,6.29-1.75,7.46A14.48,14.48,0,0,0,9.54,29,15,15,0,1,1,30,15Z"/>
      </g>
    </g>
  </g>
</svg>
