<svg xmlns="http://www.w3.org/2000/svg" viewBox="0 0 280 280">
  <defs>
    <style>
      .cls-1 {
        fill: #031224;
      }

      .cls-2 {
        fill: #422c23;
      }

      .cls-3 {
        fill: #df8651;
      }

      .cls-4 {
        fill: #d26433;
      }

      .cls-5 {
        fill: #ffbc00;
      }
    </style>
  </defs>
  <g id="Layer_2" data-name="Layer 2">
    <g id="right_board" data-name="right board">
      <g id="placeholder">
        <path class="cls-1" d="M280,140A140,140,0,1,1,140,0,139.89,139.89,0,0,1,280,140Z"/>
        <g>
          <path class="cls-2" d="M78.38,145.84S62.34,109,65.26,94.13c0,0,21.94-8.85,36.7,1.94s7.86,27.77,7.86,27.77Z"/>
          <path class="cls-3" d="M102,96.07s49.62-14,53.44-7.63c0,0,10.45,81-25.1,75.37,0,0-3.59,20,6.79,23.17,0,0-29.56,32.75-66.7,0,0,0,12,1.2,8-41.14,0,0,10.22-6.14,8.32-13.06a3.92,3.92,0,0,0-1.8-2.31C82.49,129,76.62,125,74.3,119a11.38,11.38,0,0,1,6.32-14.71c3.79-1.45,8.86-1,14.25,6.12a3.8,3.8,0,0,0,6.35-.48C102.41,107.72,103,103.63,102,96.07Z"/>
          <path class="cls-2" d="M131.55,96.53c-18.73-.31-37.35,0-56.07-1-4.45-.24-9-.55-13.1-2.29s-7.75-5.2-8.5-9.59,2.27-9.44,6.71-9.83A23.13,23.13,0,0,1,85.11,51.21a25,25,0,0,1,5.88,1c1.89.57,4,2.35,5.85,2.64,2.79.46,6.49-4.09,9.38-5.49a25.76,25.76,0,0,1,12.32-2.62,26.15,26.15,0,0,1,20,11c7.61-6.32,20-6.16,27.58.21s9.55,18.52,4.24,26.88c-4,6.29-11.23,10-18.56,11.31S139,96.65,131.55,96.53Z"/>
          <path class="cls-4" d="M130.3,163.81a58,58,0,0,0-.58,8.77s-30.4-5.73-38.14-29.3C91.58,143.28,95.71,162,130.3,163.81Z"/>
          <path class="cls-5" d="M215.07,258.19A140.06,140.06,0,0,1,20.13,212.37c9.33-8.12,24.8-17.58,50.26-25.39l.12.11-.05-.11-.07-.12s4.56-4,5.63-7.4a2,2,0,0,1,1.43-1.4,1.49,1.49,0,0,1,.47-.07h51.62a1.78,1.78,0,0,1,.83.2,2.09,2.09,0,0,1,1.07,1.27,14.07,14.07,0,0,0,5.65,7.4,2.23,2.23,0,0,1,.24.19h0C141.63,188.26,205.56,198.17,215.07,258.19Z"/>
        </g>
      </g>
    </g>
  </g>
</svg>
