<svg xmlns="http://www.w3.org/2000/svg" xmlns:xlink="http://www.w3.org/1999/xlink" viewBox="0 0 737.02 693.16">
  <defs>
    <style>
      .cls-1 {
        fill: none;
      }

      .cls-2 {
        clip-path: url(#clip-path);
      }

      .cls-3 {
        fill: #102c46;
      }

      .cls-4 {
        fill: #e4f2fd;
      }

      .cls-5 {
        fill: #fff;
      }

      .cls-6 {
        fill: #f3a41c;
      }

      .cls-7 {
        fill: #e77a15;
      }

      .cls-8 {
        fill: #cf201f;
      }

      .cls-13, .cls-9 {
        fill: #040506;
        isolation: isolate;
      }

      .cls-9 {
        opacity: 0.2;
      }

      .cls-10 {
        fill: #f5f9fa;
      }

      .cls-11 {
        fill: #47aab4;
      }

      .cls-12 {
        fill: #58b2c7;
      }

      .cls-13 {
        opacity: 0.1;
      }
    </style>
    <clipPath id="clip-path" transform="translate(230.33 12.41)">
      <circle class="cls-1" cx="237" cy="242.29" r="237"/>
    </clipPath>
  </defs>
  <g id="Layer_2" data-name="Layer 2">
    <g id="right_board" data-name="right board">
      <g id="rocket">
        <g class="cls-2">
          <g id="Mask_Group_1" data-name="Mask Group 1">
            <circle id="Ellipse_1" data-name="Ellipse 1" class="cls-3" cx="467.33" cy="254.69" r="237"/>
            <path id="Path_288-2" data-name="Path 288-2" class="cls-4" d="M506.69,466c-12.48-10.85-40.27-9.9-49,.11C456,428.47,414,419,398.52,432.2c1.63-4.26-2.62-18.09-14.52-10.33-14.87-24.68-36.88-10.36-44.92,10.23,3.88-50.89-52.89-64.51-75.54-28.44,4.48-8.46-6.6-12.22-11.12-5.28-9.85-32.29-43.32-31.37-54.62-10,3-9.76-4.43-16.3-11.75-12.45,9.74-10.1,5.07-22.58-2.52-27.47a23.35,23.35,0,0,1-10.07-23.64c2-11.77,7.36-26.42,19.85-40.79l-11-.59-2.12-10.85c-12.49,14.38-26.26,21.67-37.63,25.34a23.37,23.37,0,0,1-24.81-6.69c-5.9-6.83-18.91-9.72-27.56,1.33,2.8-7.78-4.72-14.27-14-9.91C95.79,268.51,92,235.24,58.7,230c6.24-5.43,1-15.89-6.78-10.27,32.57-27.45,11.17-81.77-38.68-70.85C32.52,138,43.64,114.24,17.13,103h0c6-12.86-8.27-15.14-12.25-13C15.78,72.88.56,32.53-36.91,36.1c8.7-10,5.76-37.66-6.72-48.51L-191.29,157.46-167,177l-63.28,25.42L320,680.75l16.37-66.2L359,635.84Z" transform="translate(230.33 12.41)"/>
            <path id="Path_289-2" data-name="Path 289-2" class="cls-5" d="M409.2,547.2c4.47-10.67-9.68-23.66-20.8-13.23-6.73-35-51.15-42.38-74.06-28.76-7.17-33.08-32.74-29.41-53.54-11.61,10.58-14.14-11.11-37.09-27-20.74,11.22-32.55-21.93-64.88-46.24-53,5.45-9.72-3-21-13.58-18.3,11.08-11.28,7.21-25.55-2-35a28.57,28.57,0,0,1-7.39-25.19c3.06-16.63,9.26-40.3,32.8-67.38l1.15-6.07-5.84,2c-23.55,27.08-46.13,36.51-62.16,41.85a28.54,28.54,0,0,1-26-3.81c-10.64-7.83-25.31-9.68-34.95,2.86,1.22-10.83-11.13-17.64-20-10.9C58,274.22,21.38,245.88-9.3,261.52c14-18-11.76-36.27-24.28-23.83,14.73-23.07,14.8-48.9-19-51.4,10.29-24.58-3.24-67.53-38.79-69.33,8.78-12.47-6.05-24.67-16-18.76C-98.15,86.07-98,66.06-102.94,59L-222.32,196.37,328,674.75,447.37,537.42C439.73,533.55,419.93,536.44,409.2,547.2Z" transform="translate(230.33 12.41)"/>
          </g>
        </g>
        <g id="rocket-2">
          <g id="Group_27" data-name="Group 27">
            <g id="Group_18" data-name="Group 18">
              <path id="Path_290" data-name="Path 290" class="cls-6" d="M200.63,295.49c-17.76,7.69-30.07,10.47-61.5,34.79l-.21.16.13-.23c19.7-34.5,20.75-47.09,25.89-65.74s25.49-29.32,25.49-29.32l18.88,14.24.08.06,16.73,16.72S218.46,287.78,200.63,295.49Z" transform="translate(230.33 12.41)"/>
              <path id="Path_291" data-name="Path 291" class="cls-7" d="M166,299.31A173.07,173.07,0,0,0,174,273.69c.65-2.56,1.32-5.21,2.07-7.94,2.48-9,14.31-20.05,19.23-23.57l22.4,19.47c-2.78,5.36-11.36,19.23-19.95,22.94-2.59,1.13-5.12,2.16-7.57,3.16A173.17,173.17,0,0,0,166,299.31Z" transform="translate(230.33 12.41)"/>
            </g>
            <g id="Group_26" data-name="Group 26">
              <g id="Group_19" data-name="Group 19">
                <path id="Path_292" data-name="Path 292" class="cls-8" d="M219.43,181.47a31.55,31.55,0,0,0-13.59-7c-9.5-2.06-22.45.81-33.77,23.07-8.67,17.06-16.5,27.5-22.35,33.79a4.65,4.65,0,0,1-7.93-4.25c5-21.58,17.12-64.11,37.66-83.22,13.65-12.71,35.1-18.36,53.56-20.81a209,209,0,0,1,35.19-1.65c-16.76,16.73-30.9,33.49-41.9,49.51h0l-.8,1.17C223.34,175.25,221.33,178.38,219.43,181.47Z" transform="translate(230.33 12.41)"/>
                <path id="Path_293" data-name="Path 293" class="cls-9" d="M219.43,181.47a31.55,31.55,0,0,0-13.59-7c-9.5-2.06-22.45.81-33.77,23.07-8.67,17.06-16.5,27.5-22.35,33.79a4.55,4.55,0,0,1-5.39,1,16.87,16.87,0,0,1,4.33-6.4C161,214.31,168.51,180.78,182.55,166a35.81,35.81,0,0,1,14.89-9.42,56.07,56.07,0,0,0,32.09-27l3.47-6.57a209.21,209.21,0,0,1,35.2-1.65c-16.76,16.73-30.9,33.49-41.9,49.51h0c-.27.39-.54.78-.8,1.18l-.31.45c-.34.5-.68,1-1,1.51s-.86,1.28-1.28,1.94c-.06.1-.12.18-.18.27-.42.64-.82,1.28-1.22,1.91C220.79,179.29,220.1,180.38,219.43,181.47Z" transform="translate(230.33 12.41)"/>
              </g>
              <g id="Group_20" data-name="Group 20">
                <path id="Path_294" data-name="Path 294" class="cls-8" d="M274.2,229.08A31.55,31.55,0,0,1,283,241.57c3.37,9.12,2.33,22.34-18.14,36.65-15.69,11-24.94,20.16-30.35,26.83a4.66,4.66,0,0,0,5.31,7.27c20.67-8,61.1-25.88,77.17-48.88,10.68-15.29,13.3-37.31,13.16-55.93a210.49,210.49,0,0,0-3.27-35.08c-14.24,18.92-28.87,35.26-43.2,48.38h0l-1.06,1C279.82,224.34,277,226.77,274.2,229.08Z" transform="translate(230.33 12.41)"/>
                <path id="Path_295" data-name="Path 295" class="cls-9" d="M274.2,229.08A31.55,31.55,0,0,1,283,241.57c3.37,9.12,2.33,22.34-18.14,36.65-15.69,11-24.94,20.16-30.35,26.83a4.54,4.54,0,0,0-.27,5.48,17,17,0,0,0,5.74-5.17c9.82-13.87,42-25.95,54.64-41.9a35.92,35.92,0,0,0,7.26-16.06,56.08,56.08,0,0,1,22.24-35.54l6-4.35a210.59,210.59,0,0,0-3.27-35.08c-14.24,18.93-28.87,35.26-43.2,48.38h0l-1.06,1c-.13.12-.27.25-.41.36-.44.41-.89.82-1.35,1.21s-1.16,1-1.74,1.54l-.25.22c-.58.5-1.15,1-1.72,1.47C276.18,227.43,275.19,228.27,274.2,229.08Z" transform="translate(230.33 12.41)"/>
              </g>
              <g id="Group_23" data-name="Group 23">
                <path id="Path_296" data-name="Path 296" class="cls-10" d="M236.2,262c-6.5,5-10.3,7.86-10.3,7.86a78.8,78.8,0,0,1-27.47-18.33,81.57,81.57,0,0,1-11.93-15.91s2.48-4.47,6.79-12.08c20.28-35.77,81-141,114-177.38a111.88,111.88,0,0,1,27.16-21.44c3.14-1.83,6.35-3.52,9.6-5.1,2.51-1.22,5.06-2.37,7.62-3.45C377.27,5.32,403.52,1.42,417.07.05A9.08,9.08,0,0,1,427,8.19c0,.18,0,.35,0,.53.53,13.78.31,40.81-7.12,68q-1,3.76-2.24,7.51Q416,89.36,414,94.42a111.22,111.22,0,0,1-17.26,29.38C365,161.84,268.12,237.44,236.2,262Z" transform="translate(230.33 12.41)"/>
                <path id="Path_297" data-name="Path 297" class="cls-8" d="M236.21,262c-6.51,5-10.31,7.87-10.31,7.87a78.83,78.83,0,0,1-27.47-18.34,81.67,81.67,0,0,1-11.93-15.91s2.49-4.46,6.8-12.07c1.21,3.26,5.69,13.52,17.56,23.84A75.12,75.12,0,0,0,236.21,262Z" transform="translate(230.33 12.41)"/>
                <g id="Group_22" data-name="Group 22">
                  <g id="Group_21" data-name="Group 21">
                    <path id="Path_298" data-name="Path 298" class="cls-8" d="M414,94.43c-14.26-7-31.51-16.84-45.22-28.76-13.46-11.71-25.39-27.51-34.26-41,3.14-1.82,6.35-3.51,9.6-5.08,8.42,12.71,19.5,27.32,31.73,38,12.45,10.83,28.41,20,41.88,26.67Q416,89.36,414,94.43Z" transform="translate(230.33 12.41)"/>
                  </g>
                </g>
                <path id="Path_299" data-name="Path 299" class="cls-9" d="M198.43,251.49a81.57,81.57,0,0,1-11.93-15.91S267.29,90.23,307.32,46.12a111.88,111.88,0,0,1,27.16-21.44c3.14-1.83,6.35-3.52,9.59-5.1,2.52-1.22,5.07-2.36,7.62-3.45C377.27,5.32,403.52,1.42,417.07.05a9,9,0,0,1,6.46,1.85C401.22,12,329.54,57,198.43,251.49Z" transform="translate(230.33 12.41)"/>
              </g>
              <path id="Path_300" data-name="Path 300" class="cls-8" d="M419.93,76.7A165.94,165.94,0,0,1,399.5,64.89a188.1,188.1,0,0,1-18.19-14c-15.54-13.51-24.48-25.53-29.61-34.77C377.27,5.32,403.52,1.42,417.07.05A9.08,9.08,0,0,1,427,8.18c0,.18,0,.36,0,.54.49,12.46.35,35.74-5.17,60.17h0Q421,72.79,419.93,76.7Z" transform="translate(230.33 12.41)"/>
              <g id="Group_24" data-name="Group 24">
                <path id="Path_301" data-name="Path 301" class="cls-8" d="M193.29,271.41a2.72,2.72,0,0,1-3.67-1.13,2.69,2.69,0,0,1-.15-2.2c15.66-43.42,70.37-89.62,93.38-107.62a2.71,2.71,0,0,1,4,3.49C272.25,189.25,234.11,249.85,193.29,271.41Z" transform="translate(230.33 12.41)"/>
                <path id="Path_302" data-name="Path 302" class="cls-9" d="M286.31,160.54,190.24,271.06a2.69,2.69,0,0,1-.78-3c15.67-43.43,70.38-89.62,93.39-107.62A2.64,2.64,0,0,1,286.31,160.54Z" transform="translate(230.33 12.41)"/>
              </g>
              <g id="Group_25" data-name="Group 25">
                <circle id="Ellipse_104" data-name="Ellipse 104" class="cls-8" cx="560.03" cy="123.27" r="31.55"/>
                <path id="Path_303" data-name="Path 303" class="cls-11" d="M348.53,127.23c-.07.08-.14.17-.22.25a25,25,0,0,1-34.73,2.43l-.25-.22a25,25,0,1,1,35.21-2.47Z" transform="translate(230.33 12.41)"/>
                <path id="Path_304" data-name="Path 304" class="cls-12" d="M354.62,109.87l-49.74,3.48a25,25,0,0,1,1.05-10.09L352.17,100A24.92,24.92,0,0,1,354.62,109.87Z" transform="translate(230.33 12.41)"/>
                <path id="Path_305" data-name="Path 305" class="cls-12" d="M348.53,127.23a2.62,2.62,0,0,1-.22.25l-34.73,2.43-.25-.22a24.85,24.85,0,0,1-4.5-5.15l43.44-3A24.17,24.17,0,0,1,348.53,127.23Z" transform="translate(230.33 12.41)"/>
                <path id="Path_306" data-name="Path 306" class="cls-13" d="M352.27,121.51a25,25,0,0,0-41.41-27c-.45.52-.87,1.05-1.27,1.59a25,25,0,0,1,40,28.53,24.57,24.57,0,0,1-2.47,4.12c.41-.4.81-.82,1.2-1.25a2.62,2.62,0,0,0,.22-.25A24.63,24.63,0,0,0,352.27,121.51Z" transform="translate(230.33 12.41)"/>
              </g>
              <path id="Path_307" data-name="Path 307" class="cls-9" d="M419.93,76.7A165.94,165.94,0,0,1,399.5,64.89a188.1,188.1,0,0,1-18.19-14c-15.54-13.51-24.48-25.53-29.61-34.77C377.27,5.32,403.52,1.42,417.07.05a9,9,0,0,1,7,2.33c-.56.09-21.34,3.44-33.78,18.65-12.6,15.42,10.95,41.47,31.56,47.85h0Q421,72.79,419.93,76.7Z" transform="translate(230.33 12.41)"/>
              <path id="Path_308" data-name="Path 308" class="cls-6" d="M207.5,247.8h0l0,0Z" transform="translate(230.33 12.41)"/>
            </g>
          </g>
        </g>
      </g>
    </g>
  </g>
</svg>
