<svg xmlns="http://www.w3.org/2000/svg" viewBox="0 0 30 24.37">
  <defs>
    <style>
      .cls-1 {
        fill: #fff;
      }
    </style>
  </defs>
  <g id="Layer_2" data-name="Layer 2">
    <g id="right_board" data-name="right board">
      <g id="twitter">
        <path id="twitter-2" class="cls-1" d="M26.92,6.07c0,.27,0,.53,0,.8,0,8.13-6.18,17.5-17.49,17.5A17.46,17.46,0,0,1,0,21.6a12.29,12.29,0,0,0,1.49.08,12.3,12.3,0,0,0,7.63-2.63,6.15,6.15,0,0,1-5.75-4.26,7.46,7.46,0,0,0,1.16.1,6.32,6.32,0,0,0,1.62-.21,6.15,6.15,0,0,1-4.93-6V8.57A6.13,6.13,0,0,0,4,9.34,6.15,6.15,0,0,1,2.1,1.12,17.48,17.48,0,0,0,14.78,7.55a6.62,6.62,0,0,1-.16-1.41,6.15,6.15,0,0,1,10.64-4.2A12.06,12.06,0,0,0,29.16.46a6.18,6.18,0,0,1-2.7,3.39,12.48,12.48,0,0,0,3.54-1A13.11,13.11,0,0,1,26.92,6.07Z"/>
      </g>
    </g>
  </g>
</svg>
