<svg xmlns="http://www.w3.org/2000/svg" viewBox="0 0 1095.67 943.37">
  <defs>
    <style>
      .cls-1 {
        fill: #001626;
      }

      .cls-2 {
        fill: #2c82c7;
      }

      .cls-3 {
        fill: #7db8e7;
      }

      .cls-4 {
        fill: #fff;
      }

      .cls-5 {
        fill: #ffb320;
      }

      .cls-6 {
        fill: #f68d23;
      }

      .cls-7 {
        fill: #e1333a;
      }

      .cls-12, .cls-8 {
        fill: #040506;
        isolation: isolate;
      }

      .cls-8 {
        opacity: 0.2;
      }

      .cls-9 {
        fill: #f6fafb;
      }

      .cls-10 {
        fill: #3aafb7;
      }

      .cls-11 {
        fill: #54b9ca;
      }

      .cls-12 {
        opacity: 0.1;
      }
    </style>
  </defs>
  <g id="Layer_2" data-name="Layer 2">
    <g id="right_board" data-name="right board">
      <g>
        <path class="cls-1" d="M757.24,0V899.55l-3.75,1.33a579.64,579.64,0,0,1-118.3,27.3l-.69.09c-11,1.37-21.87,2.45-32.49,3.26a744,744,0,0,1-177-8.12c0,.09-.07.18-.1.27Q415.8,922,406.76,920l-.8-.17-.53-.11-3.82-.85-.35-.08-.26-.06-.28-.07a642.27,642.27,0,0,1-157-58.17,601.86,601.86,0,0,1-78.91-49.93q-11.58-8.67-22.74-17.91c-37.74-31.28-73.6-70.53-80.2-119.11-7.48-55,24.19-107.34,57.78-151.6,24.71-32.57,51.94-65.33,68.15-102.21h0l.24-.53h0c2.37-5.43,4.5-10.95,6.35-16.58h0a160.24,160.24,0,0,0,6-24.34c.27-1.63.5-3.25.71-4.88.34-2.55.61-5.11.8-7.66,1.37-16.8,0-33.58-3-50.25-4.57-25-10.3-51-22.12-73.91C164.86,218.31,77,123.36,77,123.36S8.87,51.58,0,0Z"/>
        <g id="clouds">
          <path class="cls-1" d="M1065.44,664.93C997.38,889.11,729,899.74,729,899.74V0H991.53s19.17,64.77,41.81,154.65c4.16,16.54,4.06,34,8.21,52.2q2.76,12.06,5.46,24.52c15.36,71,28.93,150.77,34.09,227.41,0,.51.07,1,.1,1.53C1086.14,535.3,1083,607.22,1065.44,664.93Z"/>
          <path class="cls-2" d="M757.24,242.7V805.53L634.5,928.27c-11,1.37-21.87,2.45-32.49,3.26a744,744,0,0,1-177-8.12c0,.09-.07.18-.1.27Q415.8,922,406.76,920l-.8-.17-.53-.11-3.82-.85-.35-.08-.26-.06-.28-.07a642.27,642.27,0,0,1-157-58.17,601.86,601.86,0,0,1-78.91-49.93c24.28-34.6,67.29-35.17,86.28-16.18,3.74-20.79,26.48-28.87,39.91-22.34,8.61-44.85,67.08-73.32,117.69-22.21,1.06-33.84,50.74-71,86.63-23.33,5.85-21.38,31.18-17.22,35,.14,2.33-19.54,28.71-18.87,37.16-31.31a15.9,15.9,0,0,0,2.5-11,54.07,54.07,0,0,0-3.37-14.82,40.37,40.37,0,0,0-6.21-10.7h0C557,654.4,553,651,549.12,647.57c-1.36-1.21-2.7-2.44-4-3.72l-.13-.13-.3-.29,5.37-5.37.28.28c1.33,1.34,2.6,2.74,3.86,4.15,5.19,5.82,10.2,11.92,18.62,16.1,1,.52,2.14,1,3.3,1.46a54.1,54.1,0,0,0,14.81,3.36,16,16,0,0,0,11-2.49c12.42-8.45,11.75-34.83,31.29-37.16-17.36-3.85-21.52-29.17-.14-35-47.69-35.89-10.51-85.57,23.33-86.64C605.3,451.49,633.77,393,678.62,384.42,672.09,371,680.17,348.25,701,344.5,676.34,319.88,684.59,254.92,757.24,242.7Z"/>
          <path class="cls-2" d="M1049.9,231.37C969.68,296.24,847.05,382.42,757.24,387.9c-2.58.16-5.14.25-7.66.27A116.75,116.75,0,0,1,725,385.93c-1.15-8.63,24.82-116.56,28.4-142.53a24.41,24.41,0,0,0,.37-5q1.63-2.58,3.44-5.06a100.9,100.9,0,0,1,142.41-21.78c8.48-30.62,32.51-56.49,62.42-67.19,17.64-6.3,37.63-7.39,54.91-.17a56.71,56.71,0,0,1,16.36,10.49c3.83,16.54,7.72,34,11.54,52.2Q1047.42,218.91,1049.9,231.37Z"/>
          <path class="cls-3" d="M759.15,347.76l-1.91,457.77L634.5,928.27c-11,1.37-21.87,2.45-32.49,3.26a744,744,0,0,1-177-8.12c0,.09-.07.18-.1.27Q415.8,922,406.76,920l-.8-.17-.53-.11-3.82-.85-.35-.08-.26-.06-.28-.07a642.27,642.27,0,0,1-157-58.17c15.63-19.6,44.83-24,58.88-13.63-1.89-4.08.37-16.13,9.31-16.13a15.65,15.65,0,0,1,7.52,2.3c16-31.36,44.09-15.78,55.64,8.64-9.06-61.71,59-83.17,89.68-41.11-6.18-9.94,7-15.47,13.11-7.39,9.25-40.21,50.13-41.94,65.74-16.84-4.54-11.64,4-20.26,13.26-16.18-12.74-11.49-8.1-27.1.73-33.71a28.55,28.55,0,0,0,10.27-29.68l-.36-1.43a101.84,101.84,0,0,0-25.18-44.41c-.7-.74-1.42-1.48-2.15-2.21l8.56-1,.34,0,4.52-.56.56-4.52,0-.36,1-8.54c.36.36.71.71,1.07,1,15.61,15.22,32,22.7,45.57,26.28l1.41.36A28.55,28.55,0,0,0,633,651c6.61-8.83,22.22-13.47,33.71-.73-4.08-9.25,4.54-17.8,16.18-13.26-25.1-15.61-23.37-56.49,16.84-65.74-8.08-6.1-2.55-19.29,7.39-13.11-42.06-30.69-20.6-98.74,41.11-89.68-24.42-11.55-40-39.61-8.64-55.64-8.45-15.17,8.78-19.17,13.83-16.83C745.1,384.74,748.21,363.7,759.15,347.76Z"/>
          <path class="cls-3" d="M1083.3,472.67c-.26.49-.53,1-.81,1.46-16.67,29.4-46.51,39.42-73.57,63.24q-5,4.38-10.17,8.39l-1.27,1c-29.12,22.22-63.17,36.8-96.67,51l-109.6,46.57c-10.83,4.61-22.74,9.25-33.88,5.94h0c-.38-.11-.76-.24-1.14-.37a29.47,29.47,0,0,1-12.73-9.16c-5.39-6.38-9.08-14.84-11.62-23.07-10.36-33.65,10-71.77,23-104.38,7.19-18-9.36-33.72-3.52-52.22,5.1-16.17,1.1-37.36-.94-55.33-.3-2.62-.56-5.16-.74-7.62l5.6.11c-.86-11.66-5.16-23.81-1.78-35.72.93-3.3,2-6.59,3.29-9.86.17-.46.36-.91.57-1.37,5.07-11.47,17.9-21.43,28.07-24.85,6.74-2.26,34.73-6.48,38.53,3.59-5.73-15.19-3.33-33.45,6.1-46.44s25.55-20.27,41-18.49c12.89-29.4,50.34-43.58,78.12-29.58,16.35-30.15,57.69-41.55,86-23.73,3.32-2.23,5.93-4,9.69-4.93,1.7,8.47,4.37,17.28,6,26,14.18,74.83,26.71,158.88,31.47,239.64Z"/>
          <path class="cls-4" d="M1078.92,668.82C1015.11,897.21,763.47,908,763.47,908c-1.27.46-2.54.91-3.82,1.35l-3.1,1.1c-67.69,23.66-119.66,28.57-119.89,28.61-11.3,2.29-22.69,2-32.93,2l-2.16-.29c-80.11,7.16-146.17-2.09-176.56-8.62,10.2-28.57,38.22-24.69,62.53-6.68-14.38-16.64,10.58-47,31.71-28.1-16.77-39.46,21.61-82.5,52.83-69.8C564.47,816,574,801.2,587.36,803.65c-14.74-13-11.17-31.11-.51-43.65a35.59,35.59,0,0,0,7-31.94c-3.75-14.57-9.81-33.48-24.5-54.62q-4.2-6.06-9.42-12.37c-2.71-3.26-5.63-6.56-8.81-9.9-1.2-1.27-2.45-2.54-3.73-3.83l-.13-.13-.13-.48-1.83-7,7,1.84.45.11h0c1.32,1.32,2.64,2.61,3.95,3.85a192.36,192.36,0,0,0,17.4,14.72c1.64,1.23,3.27,2.42,4.89,3.54,21.14,14.68,40,20.73,54.61,24.48a35.6,35.6,0,0,0,31.94-7c12.54-10.66,30.59-14.22,43.65.52-2.45-13.36,12.3-22.89,23.91-15.28-14.93-9.79,10.18-38.86,16.31-45.16l.11-.1c5.91-6.05,9.66-13.69,14-21h0c4.53-7.62,9.67-14.86,18.6-19.47a45.87,45.87,0,0,1,41.72.1,62.21,62.21,0,0,1,94.31-18c.31-20.71,14.61-40.47,34.18-47.25,19.07-6.6,41.86-.4,55.08,14.81.34.38.66.78,1,1.18.09-.7.18-1.42.3-2.12,4.2-28.26,22-55.07,48.2-66.32a68.17,68.17,0,0,1,36.74-4.49l.93.15c-.27.48-.54.95-.83,1.41C1098.33,536.75,1095.34,610,1078.92,668.82Z"/>
        </g>
        <g id="rocket">
          <g id="Group_152" data-name="Group 152">
            <g id="Group_143" data-name="Group 143">
              <path id="Path_569" data-name="Path 569" class="cls-5" d="M536.31,593.07c10,22.07,13.76,37.43,44.88,76.26l.21.25-.29-.16c-43.63-23.92-59.41-25-82.88-31S461,607.15,461,607.15l17.42-24,.08-.1L499,561.78S526.26,570.9,536.31,593.07Z"/>
              <path id="Path_570" data-name="Path 570" class="cls-6" d="M541.83,636.4c-12.77-5-22.36-7.23-32.25-9.55-3.22-.76-6.55-1.54-10-2.42-11.29-2.9-25.42-17.48-29.92-23.57l23.89-28.46c6.78,3.37,24.33,13.81,29.17,24.47,1.46,3.23,2.81,6.37,4.11,9.41C530.84,615.62,534.72,624.67,541.83,636.4Z"/>
            </g>
            <g id="Group_151" data-name="Group 151">
              <g id="Group_144" data-name="Group 144">
                <path id="Path_571" data-name="Path 571" class="cls-7" d="M393.12,572a39.58,39.58,0,0,0-8.46,17.18c-2.38,11.93,1.5,28.08,29.63,41.78,21.54,10.49,34.79,20.06,42.78,27.26a5.83,5.83,0,0,1-5.14,10c-27.14-5.84-80.65-20.06-105-45.36-16.21-16.83-23.75-43.56-27.22-66.62a263.67,263.67,0,0,1-2.82-44c21.31,20.62,42.61,38,62.9,51.4h0l1.49,1C385.25,567.23,389.22,569.69,393.12,572Z"/>
                <path id="Path_572" data-name="Path 572" class="cls-8" d="M393.12,572a39.63,39.63,0,0,0-8.46,17.18c-2.38,11.94,1.5,28.08,29.62,41.78,21.55,10.49,34.8,20.06,42.79,27.26a5.69,5.69,0,0,1,1.41,6.72,21,21,0,0,1-8.11-5.27c-14.86-15.24-57-23.88-75.8-41.14a45,45,0,0,1-12.12-18.44A70.25,70.25,0,0,0,328,560.47l-8.3-4.21a262.61,262.61,0,0,1-2.82-44c21.31,20.62,42.6,38,62.9,51.4h0c.5.33,1,.66,1.49,1,.19.13.38.26.58.37.63.42,1.26.84,1.9,1.24l2.46,1.56.35.22c.81.51,1.61,1,2.42,1.49C390.36,570.34,391.74,571.18,393.12,572Z"/>
              </g>
              <g id="Group_145" data-name="Group 145">
                <path id="Path_573" data-name="Path 573" class="cls-7" d="M451.55,502.38A39.46,39.46,0,0,1,467,491.08c11.35-4.42,27.92-3.4,46.29,21.93,14.06,19.4,25.78,30.79,34.26,37.41a5.83,5.83,0,0,0,9-6.8c-10.44-25.71-33.72-75.95-62.87-95.58-19.38-13-47-15.84-70.32-15.26a262.74,262.74,0,0,0-43.86,4.85c24,17.41,44.78,35.38,61.52,53h0l1.22,1.3C445.5,495.45,448.61,498.94,451.55,502.38Z"/>
                <path id="Path_574" data-name="Path 574" class="cls-8" d="M451.55,502.38A39.46,39.46,0,0,1,467,491.08c11.35-4.42,27.92-3.4,46.29,21.93,14.06,19.4,25.78,30.79,34.26,37.41a5.67,5.67,0,0,0,6.86.23,21.17,21.17,0,0,0-6.59-7.08c-17.59-12-33.4-52-53.66-67.52a45,45,0,0,0-20.26-8.74,70.28,70.28,0,0,1-45-27.08l-5.58-7.45a262.74,262.74,0,0,0-43.86,4.85c24,17.41,44.78,35.38,61.52,53h0l1.22,1.3c.16.17.32.33.47.5.52.56,1,1.11,1.54,1.67.66.71,1.32,1.43,2,2.15l.29.31c.63.71,1.26,1.41,1.88,2.12C449.45,500,450.51,501.16,451.55,502.38Z"/>
              </g>
              <g id="Group_148" data-name="Group 148">
                <path id="Path_575" data-name="Path 575" class="cls-9" d="M493.54,549.25c6.39,8,10.08,12.74,10.08,12.74a98.72,98.72,0,0,1-22.37,34.78,102.28,102.28,0,0,1-19.67,15.29s-5.64-3-15.27-8.25C401.08,579.2,268,505.42,221.73,464.86a140.44,140.44,0,0,1-27.44-33.54q-3.53-5.85-6.58-11.91c-1.58-3.13-3.07-6.3-4.48-9.47-14.09-31.79-19.55-64.58-21.56-81.52a11.38,11.38,0,0,1,10-12.62l.67-.06c17.24-1,51.09-1.27,85.28,7.45q4.72,1.2,9.44,2.64c4.33,1.32,8.63,2.79,12.87,4.46a139.47,139.47,0,0,1,37.17,21C365.4,390.09,462.16,509.82,493.54,549.25Z"/>
                <path id="Path_576" data-name="Path 576" class="cls-7" d="M493.54,549.25c6.39,8,10.08,12.74,10.08,12.74a98.72,98.72,0,0,1-22.37,34.78,102.28,102.28,0,0,1-19.67,15.29s-5.64-3-15.27-8.25c4.07-1.58,16.81-7.43,29.47-22.51A94,94,0,0,0,493.54,549.25Z"/>
                <g id="Group_147" data-name="Group 147">
                  <g id="Group_146" data-name="Group 146">
                    <path id="Path_577" data-name="Path 577" class="cls-7" d="M279.92,330.29c-8.47,18-20.4,39.81-35,57.24-14.37,17.11-33.9,32.38-50.6,43.79-2.36-3.9-4.54-7.88-6.58-11.92,15.74-10.82,33.8-25,46.85-40.55,13.29-15.83,24.42-36,32.49-53Q273.53,327.81,279.92,330.29Z"/>
                  </g>
                </g>
                <path id="Path_578" data-name="Path 578" class="cls-8" d="M481.25,596.77a102.28,102.28,0,0,1-19.67,15.29S277.83,514,221.74,464.87a140.05,140.05,0,0,1-27.44-33.55q-3.54-5.85-6.59-11.91-2.37-4.7-4.47-9.46c-14.1-31.79-19.55-64.59-21.56-81.52a11.32,11.32,0,0,1,2.18-8.13C176.94,348,234.9,436.8,481.25,596.77Z"/>
              </g>
              <path id="Path_579" data-name="Path 579" class="cls-7" d="M257.6,323.18A208.88,208.88,0,0,1,243.25,349a238,238,0,0,1-17.13,23.08c-16.57,19.74-31.43,31.2-42.89,37.83-14.1-31.79-19.54-64.58-21.55-81.51a11.37,11.37,0,0,1,10-12.61c.23,0,.45-.05.68-.06,15.59-.89,44.74-1.21,75.45,5.17h0Q252.66,321.94,257.6,323.18Z"/>
              <g id="Group_149" data-name="Group 149">
                <path id="Path_580" data-name="Path 580" class="cls-7" d="M506.31,602.78a3.41,3.41,0,0,1-4.09,4.86C447.51,589,388.48,521.46,365.44,493a3.4,3.4,0,0,1,4.29-5.11C401.72,505.69,478.43,552.13,506.31,602.78Z"/>
                <path id="Path_581" data-name="Path 581" class="cls-8" d="M365.46,488.7,505.93,606.61a3.35,3.35,0,0,1-3.71,1C447.51,589,388.48,521.46,365.44,493A3.31,3.31,0,0,1,365.46,488.7Z"/>
              </g>
              <g id="Group_150" data-name="Group 150">
                <circle id="Ellipse_160" data-name="Ellipse 160" class="cls-7" cx="302.32" cy="435.44" r="39.52"/>
                <path id="Path_582" data-name="Path 582" class="cls-10" d="M322.41,411.5c.11.09.22.18.32.28a31.28,31.28,0,0,1,3.79,43.44,4,4,0,0,0-.26.32,31.27,31.27,0,1,1-3.86-44.05Z"/>
                <path id="Path_583" data-name="Path 583" class="cls-11" d="M300.54,404.26,306,466.47a31.32,31.32,0,0,1-12.66-1.1l-5.05-57.83A31.17,31.17,0,0,1,300.54,404.26Z"/>
                <path id="Path_584" data-name="Path 584" class="cls-11" d="M322.41,411.51a3.74,3.74,0,0,1,.31.27l3.8,43.44-.27.32a30.89,30.89,0,0,1-6.34,5.74L315.16,407A30.86,30.86,0,0,1,322.41,411.51Z"/>
                <path id="Path_585" data-name="Path 585" class="cls-12" d="M315.16,407a31.26,31.26,0,0,0-32.94,52.43c.66.55,1.34,1.07,2,1.56a31.27,31.27,0,0,1,34.85-50.69,30.62,30.62,0,0,1,5.21,3c-.5-.51-1-1-1.59-1.47l-.31-.28A31.16,31.16,0,0,0,315.16,407Z"/>
              </g>
              <path id="Path_586" data-name="Path 586" class="cls-8" d="M257.6,323.18A208.88,208.88,0,0,1,243.25,349a238,238,0,0,1-17.13,23.08c-16.57,19.74-31.43,31.2-42.89,37.83-14.1-31.79-19.54-64.58-21.55-81.51a11.27,11.27,0,0,1,2.76-8.84c.13.69,4.77,26.64,24.09,41.89,19.57,15.45,51.68-14.61,59.23-40.56h0Q252.66,321.94,257.6,323.18Z"/>
              <path id="Path_587" data-name="Path 587" class="cls-5" d="M476.44,585.5h0l0,0Z"/>
            </g>
          </g>
        </g>
      </g>
    </g>
  </g>
</svg>
