<svg xmlns="http://www.w3.org/2000/svg" viewBox="0 0 879.86 838.71">
  <defs>
    <style>
      .cls-1 {
        fill: #13385b;
      }

      .cls-2 {
        fill: #092339;
      }

      .cls-3 {
        fill: #041625;
      }

      .cls-4 {
        fill: #dadada;
      }

      .cls-5 {
        fill: #404040;
      }

      .cls-6 {
        fill: #202020;
      }

      .cls-7 {
        fill: #606060;
      }

      .cls-8 {
        fill: #a6a7a4;
      }

      .cls-9 {
        opacity: 0.71;
      }

      .cls-10 {
        fill: #3a3f5d;
      }

      .cls-11 {
        fill: #adafbb;
      }

      .cls-12 {
        fill: #2f3453;
      }

      .cls-13 {
        fill: #4b4e6a;
      }

      .cls-14 {
        fill: #bbbcc6;
      }

      .cls-14, .cls-26, .cls-28, .cls-29 {
        opacity: 0.4;
      }

      .cls-14, .cls-18, .cls-26, .cls-28, .cls-29, .cls-33 {
        isolation: isolate;
      }

      .cls-15 {
        fill: #181d40;
      }

      .cls-16 {
        fill: #84dce9;
      }

      .cls-17 {
        fill: #deb5d5;
      }

      .cls-18 {
        fill: #bbebf3;
        opacity: 0.5;
      }

      .cls-19 {
        fill: #a6a8b5;
      }

      .cls-20 {
        fill: #c4c5ce;
      }

      .cls-21 {
        fill: #ececef;
      }

      .cls-22 {
        fill: #9698a8;
      }

      .cls-23 {
        fill: #d4d5db;
      }

      .cls-24 {
        fill: #fff;
      }

      .cls-25 {
        fill: #49a4b2;
      }

      .cls-26, .cls-27 {
        fill: #70adb7;
      }

      .cls-28 {
        fill: #4fb1bf;
      }

      .cls-29 {
        fill: #efddc1;
      }

      .cls-30 {
        fill: #363b59;
      }

      .cls-31 {
        opacity: 0.7;
      }

      .cls-32 {
        fill: #e1aa59;
      }

      .cls-33 {
        fill: #ebc78f;
        opacity: 0.6;
      }

      .cls-34 {
        fill: #edc561;
      }

      .cls-35 {
        opacity: 0.7;
      }
    </style>
  </defs>
  <g id="Layer_2" data-name="Layer 2">
    <g id="left_board" data-name="left board">
      <g id="header_illustrations" data-name="header illustrations">
        <path class="cls-1" d="M879.86,0V321.64c-54.42,127.4-245.4,288-286.18,289.86a11.48,11.48,0,0,1-3-.2l-193.95,11-.58-.31c-45.54-24.3-67.67-84.17-74.82-135.37-7.17-51.42-8.25-106.14-35.58-150.27C253.3,284,191.88,259,141.87,223,68.62,170.3,17.19,88.52,0,0Z"/>
        <path class="cls-2" d="M879.86,0V77.07C814.19,294.26,817.31,382.87,592.49,593l-1.85,1.73-1.9,1.77-187.46-5.63-2.51-.08-.6-.4c-28.93-19.06-32-59.47-37.38-93.85-10.74-68.7-41.42-151.11-89.74-201.11-41.1-42.52-108.48-98-156-130.22C60.74,130,14.15,47.65,10.36,0Z"/>
        <path class="cls-3" d="M809.49,0a1087.85,1087.85,0,0,0-67,270.63c-4.74,41.44-7.57,84.71-28.21,121-17.1,30-44.84,52.3-67.3,78.58a270.37,270.37,0,0,0-57.74,114.87h-.09l-5.51-.28-160.69-7.9.15-.88c.4-2.31.77-4.63,1.09-7,9-63.39-7.11-130.11-44.36-182.23-27-37.74-65.43-70.14-75.34-115.46-13.91-63.64-102.24-123.19-128.8-158C133.74,64.17,86.73,17.13,70,0Z"/>
        <g id="backpack">
          <path id="Rectangle_8" data-name="Rectangle 8" class="cls-4" d="M357.7,812.19H635.47a13.26,13.26,0,0,1,13.26,13.26h0a13.25,13.25,0,0,1-13.26,13.26H357.7a13.26,13.26,0,0,1-13.26-13.26h0A13.26,13.26,0,0,1,357.7,812.19Z"/>
          <path id="Rectangle_9" data-name="Rectangle 9" class="cls-5" d="M396.14,623.67H593.68v166.8a38,38,0,0,1-37.95,37.95H434.1a38,38,0,0,1-38-37.95h0V623.67Z"/>
          <path id="Rectangle_10" data-name="Rectangle 10" class="cls-6" d="M429.28,575.41H560.55a33.13,33.13,0,0,1,33.13,33.13v20.55a42.83,42.83,0,0,1-42.83,42.84H439a42.84,42.84,0,0,1-42.84-42.84h0V608.54A33.13,33.13,0,0,1,429.28,575.41Z"/>
          <path id="Rectangle_11" data-name="Rectangle 11" class="cls-7" d="M429.28,568.65H560.55a33.13,33.13,0,0,1,33.13,33.13v20.54a42.83,42.83,0,0,1-42.83,42.84H439a42.84,42.84,0,0,1-42.84-42.84h0V601.78A33.13,33.13,0,0,1,429.28,568.65Z"/>
          <path id="Rectangle_12" data-name="Rectangle 12" class="cls-6" d="M416.89,699.44H569.33v65.7a47,47,0,0,1-47.05,47.05H463.94a47.06,47.06,0,0,1-47.05-47.05h0v-65.7Z"/>
          <path id="Path_38" data-name="Path 38" class="cls-7" d="M416.89,699.44H569.33s1.8,94.71-76.22,94.71S416.89,699.44,416.89,699.44Z"/>
          <path id="Path_39" data-name="Path 39" class="cls-7" d="M396.14,796.31c-11.8,0-21.64,1.8-21.64-10V720.82a21.38,21.38,0,0,1,21.38-21.38h.26Z"/>
          <path id="Path_40" data-name="Path 40" class="cls-7" d="M593.69,796.31c11.8,0,21.64,1.8,21.64-10V720.82A21.38,21.38,0,0,0,594,699.44h-.26Z"/>
          <path id="Path_41" data-name="Path 41" class="cls-8" d="M518.93,650.7a23,23,0,1,1-44.89-7,22.91,22.91,0,0,0,43.83,0A23,23,0,0,1,518.93,650.7Z"/>
          <path id="Path_42" data-name="Path 42" class="cls-8" d="M509.11,786.51a13.43,13.43,0,0,1-26.86,0,13.13,13.13,0,0,1,.62-4,13.5,13.5,0,0,0,25.62,0A12.83,12.83,0,0,1,509.11,786.51Z"/>
          <path id="Path_43" data-name="Path 43" class="cls-5" d="M462.62,568.65s-2-55.55,33.34-55.13,30.71,55.13,30.71,55.13H517.4s-1.81-44.37-22.49-44.6S473,568.65,473,568.65Z"/>
          <path id="Path_44" data-name="Path 44" class="cls-5" d="M374.5,730.28s17.82-3.64,21.64-12V699.44S370.35,698.55,374.5,730.28Z"/>
          <path id="Path_45" data-name="Path 45" class="cls-5" d="M615.11,730.28s-17.82-3.64-21.65-12V699.44S619.26,698.55,615.11,730.28Z"/>
        </g>
        <g id="phone" class="cls-9">
          <g id="Group_85" data-name="Group 85">
            <path id="Path_375" data-name="Path 375" class="cls-10" d="M395.16,289.28a8.83,8.83,0,0,0-2.63,8c.91,5,42.67,64.93,46.93,67.53s10.71,3.67,22.31-3.64,14.82-9.55,16.1-13.68a9.39,9.39,0,0,0-.88-7.43l-49.14-51Z"/>
            <path id="Path_376" data-name="Path 376" class="cls-11" d="M394.55,289.9h0l-.29.36-.05.07c-.09.12-.19.25-.28.39l-.06.08a10.14,10.14,0,0,0-.67,1.2c-1,4.31,5.33,12,9.5,17.79,4.45,6.18,34.35,48.4,39.36,52.63S456,361.9,462.42,358c5.74-3.49,14.53-8.27,15.6-13.11a8.33,8.33,0,0,0,.17-1.22,9.48,9.48,0,0,0-1-3.19l-49.35-51.41-32.56.22C395,289.49,394.77,289.7,394.55,289.9Z"/>
            <path id="Path_377" data-name="Path 377" class="cls-12" d="M394.15,290.53c-2.16,4.08,4.73,12.43,9.19,18.62s34.21,48.32,39.22,52.55,14.67-1.55,21.11-5.46,14-8.05,14.46-13S449.49,303,439.2,288.43c-2.86-4.05-9.23-12.59-14.76-11.9C417,277.46,396.36,286.34,394.15,290.53Z"/>
            <path id="Path_378" data-name="Path 378" class="cls-13" d="M438.28,355c-8.54-10.81-24.28-32.88-31.09-42.42-1.33-1.88-2.35-3.3-2.93-4.1s-1.13-1.56-1.73-2.38c-1.69-2.29-3.43-4.65-4.84-6.92,8.6-3.8,25.71-11.4,36-16a65.15,65.15,0,0,1,4.6,5.86c3.26,4.63,8.43,11.34,13.9,18.45,7.51,9.77,16,20.77,20.83,28.1Z"/>
            <path id="Path_379" data-name="Path 379" class="cls-14" d="M404.26,308.49l0,0c9.12.83,18.28,1.36,27.43,1.79,7.66.37,15.46.39,23.2.8-.92-1.2-1.84-2.4-2.75-3.57-3.37-4.38-6.61-8.61-9.38-12.29-2.95-.5-5.89-.94-8.81-1.25-7.06-.75-14.16-1.09-21.25-1.5l-15.06,6.67c1.42,2.28,3.16,4.64,4.85,6.93C403.13,306.93,403.71,307.72,404.26,308.49Z"/>
            <path id="Path_380" data-name="Path 380" class="cls-14" d="M464.93,324.3c-1.43-1.92-2.91-3.89-4.43-5.89-7.68-.24-15.41-1-23-1.24-9.32-.35-18.63-.74-27.94-1.32,1.2,1.69,2.56,3.58,4,5.6C430.63,323.34,447.82,322.83,464.93,324.3Z"/>
          </g>
          <path id="Path_381" data-name="Path 381" class="cls-15" d="M414.09,285.42a1.2,1.2,0,0,1-.73,1.51,1.18,1.18,0,0,1-.86-2.2A1.22,1.22,0,0,1,414.09,285.42Z"/>
          <path id="Path_382" data-name="Path 382" class="cls-15" d="M416.56,284.09a.63.63,0,0,1-.39.81.64.64,0,0,1-.82-.39.64.64,0,0,1,1.21-.42Z"/>
        </g>
        <g id="watch" class="cls-9">
          <path id="Path_383" data-name="Path 383" class="cls-16" d="M595.82,422.83s5.63,2,4.42,11.27-6.84,17.71-15,24.55S571.4,466,567.11,466,557,462.94,557,462.94s4.83,7.92,8.46,10.2,6.7,4.16,12.47,3.62,17.44-3.62,26.83-17.84,7.11-21.47,5.64-24.69S602.26,423.23,595.82,422.83Z"/>
          <path id="Path_384" data-name="Path 384" class="cls-17" d="M595.82,422.83s5.63,2,4.42,11.27-6.84,17.71-15,24.55S571.4,466,567.11,466,557,462.94,557,462.94s4.83,7.92,8.46,10.2,6.7,4.16,12.47,3.62,17.44-3.62,26.83-17.84,7.11-21.47,5.64-24.69S602.26,423.23,595.82,422.83Z"/>
          <g id="Group_87" data-name="Group 87">
            <path id="Path_385" data-name="Path 385" class="cls-18" d="M597.29,423.75a7.07,7.07,0,0,0-.81-.83c-.22,0-.44-.08-.66-.09A5.76,5.76,0,0,1,597.29,423.75Z"/>
            <path id="Path_386" data-name="Path 386" class="cls-18" d="M610.44,434.23a23.73,23.73,0,0,0-4.79-6.13,21.73,21.73,0,0,1,3.85,5.19c1.48,3.22,3.76,10.47-5.63,24.69S582.8,475.28,577,475.82s-8.85-1.34-12.47-3.62A10.73,10.73,0,0,1,563,471a13.57,13.57,0,0,0,2.49,2.17c3.62,2.28,6.7,4.16,12.47,3.62s17.44-3.62,26.83-17.84S611.91,437.45,610.44,434.23Z"/>
          </g>
          <path id="Path_387" data-name="Path 387" class="cls-16" d="M589.11,431.68s8.18-6.57,16.1-2.14,6,14.22,6,14.22,3.08-10.47-6.44-19.32-16.24-8.72-22.4-6.44-6.58,5.23-6.58,5.23Z"/>
          <path id="Path_388" data-name="Path 388" class="cls-16" d="M568.31,453.28s-6.7,5.64-6.44,12.08,9.66,10.86,9.66,10.86-12.88-2.55-18.24-15.16,4.29-20.12,4.29-20.12Z"/>
          <g id="Group_88" data-name="Group 88">
            <path id="Path_389" data-name="Path 389" class="cls-12" d="M552.22,435.71s-3.9,3.75-.27,9.39,8.31,11.54,15.7,11.67,22.94-18.92,24.55-22.54-.54-8.32-5.37-13.41-9.66-7.25-15.29-4.16S554.09,432.09,552.22,435.71Z"/>
            <path id="Path_390" data-name="Path 390" class="cls-13" d="M576.77,415.24a10.62,10.62,0,0,0-5.24,1.42c-5.63,3.08-17.44,15.43-19.31,19a5.46,5.46,0,0,0-.9,1.24,8.62,8.62,0,0,0,1.92,4.66c3.49,4.29,7.83,9.79,12.79,9.26s20.8-18.25,21.74-20.39.53-3.49-1.61-6.31A54,54,0,0,0,576.77,415.24Z"/>
            <path id="Path_391" data-name="Path 391" class="cls-14" d="M586.1,432.79a16.55,16.55,0,0,0,1.67-2.31c.94-2.15.53-3.49-1.61-6.31-.2-.26-.45-.56-.73-.89-2.46.12-4.92.24-7.32.46-6,.54-12,1.46-17.88,2.49a70.47,70.47,0,0,0-7.56,8.71C563.83,434.52,575,433.37,586.1,432.79Z"/>
            <path id="Path_392" data-name="Path 392" class="cls-14" d="M582.52,436.92c-4.16.49-8.34.77-12.34,1-6.13.39-12.19,1-18.31,1.33a9.1,9.1,0,0,0,1.37,2.33c.51.62,1,1.27,1.57,1.92,7.79-.7,15.61-1.45,23.42-2.07C579.74,439.93,581.21,438.37,582.52,436.92Z"/>
          </g>
        </g>
        <g id="laptop" class="cls-9">
          <g id="Group_103" data-name="Group 103">
            <g id="Group_102" data-name="Group 102">
              <path id="Path_393" data-name="Path 393" class="cls-19" d="M497.78,180.42l.6,3.82L600.85,296.11l.29-3.24-100-110.28Z"/>
              <path id="Path_394" data-name="Path 394" class="cls-20" d="M600.92,293.29l-.07,2.82,54.1-7.62,1.21-2.24L613.37,289l-12,2.14Z"/>
              <path id="Path_395" data-name="Path 395" class="cls-21" d="M555.67,183.15l-57.89-2.73L600.92,293.29l55.24-7Z"/>
              <path id="Path_396" data-name="Path 396" class="cls-12" d="M554.44,183l66.93-65.87s3.07-4.13,8.84,0,64,57.94,64,57.94,23.42,21.9,31.12,29.3c2.87,2.76,5.05,4.49,3,8.95s-13.63,14.95-13.63,14.95l-58.52,58Z"/>
              <path id="Path_397" data-name="Path 397" class="cls-13" d="M563.43,182.07,623.5,121.3l99,90.58-64.81,65Z"/>
              <path id="Path_398" data-name="Path 398" class="cls-14" d="M668.05,212.6c15.44-2.85,30.91-5.24,46.3-8.19l-27-24.65c-13.94,2.39-27.95,4.48-41.85,6.63-22.57,3.5-45.4,8.13-68.27,9.6l29,29.15C627,221.63,647.38,216.42,668.05,212.6Z"/>
              <path id="Path_399" data-name="Path 399" class="cls-14" d="M679.29,230.71c10.62-2.1,21.12-4.55,31.58-7.16l9.69-9.72c-13.9,3.06-28,5.44-41.83,8-21.35,3.88-42.69,7.74-64,11.85l7.21,7.25C641.09,237.67,660.24,234.47,679.29,230.71Z"/>
              <path id="Path_400" data-name="Path 400" class="cls-11" d="M529.1,186.85l24.72.58L645,279.22l-25.49,2.86Z"/>
              <g id="Group_90" data-name="Group 90">
                <path id="Path_401" data-name="Path 401" class="cls-22" d="M636.83,276.56a.5.5,0,0,1-.22-.13l-35-35.6a.47.47,0,0,1,0-.65.46.46,0,0,1,.63,0l35,35.6a.46.46,0,0,1,0,.65.45.45,0,0,1-.43.11Z"/>
              </g>
              <g id="Group_91" data-name="Group 91">
                <path id="Path_402" data-name="Path 402" class="cls-22" d="M592.5,231.42a.48.48,0,0,1-.22-.12l-15.79-16.07a.46.46,0,0,1,.64-.67l0,0,15.79,16.07a.47.47,0,0,1,0,.65.43.43,0,0,1-.43.12Z"/>
              </g>
              <g id="Group_92" data-name="Group 92">
                <path id="Path_403" data-name="Path 403" class="cls-22" d="M573.66,212.24a.48.48,0,0,1-.22-.12l-21.93-22.33a.46.46,0,0,1,.66-.64l21.93,22.33a.46.46,0,0,1,0,.65.48.48,0,0,1-.43.12Z"/>
              </g>
              <g id="Group_93" data-name="Group 93">
                <path id="Path_404" data-name="Path 404" class="cls-22" d="M630.07,276.89a.39.39,0,0,1-.21-.13L610,256.45a.46.46,0,0,1,.65-.64l19.89,20.31a.46.46,0,0,1-.44.77Z"/>
              </g>
              <g id="Group_94" data-name="Group 94">
                <path id="Path_405" data-name="Path 405" class="cls-22" d="M604.89,251.17a.43.43,0,0,1-.22-.12L583,229a.46.46,0,1,1,.63-.67l0,0,21.62,22.08a.45.45,0,0,1-.43.76Z"/>
              </g>
              <g id="Group_95" data-name="Group 95">
                <path id="Path_406" data-name="Path 406" class="cls-22" d="M577.63,223.35a.46.46,0,0,1-.21-.13l-12.53-12.78a.46.46,0,0,1,0-.65.45.45,0,0,1,.65,0l12.52,12.78a.46.46,0,0,1,0,.65.48.48,0,0,1-.44.12Z"/>
              </g>
              <g id="Group_96" data-name="Group 96">
                <path id="Path_407" data-name="Path 407" class="cls-22" d="M562,207.37a.42.42,0,0,1-.21-.13l-16.7-17a.46.46,0,0,1,.65-.65h0l16.7,17a.46.46,0,0,1,0,.65.48.48,0,0,1-.44.12Z"/>
              </g>
              <g id="Group_97" data-name="Group 97">
                <path id="Path_408" data-name="Path 408" class="cls-22" d="M624.29,278.61a.5.5,0,0,1-.22-.13l-10.68-10.93a.46.46,0,1,1,.65-.64h0l10.69,10.93a.46.46,0,0,1-.44.77Z"/>
              </g>
              <g id="Group_98" data-name="Group 98">
                <path id="Path_409" data-name="Path 409" class="cls-22" d="M611.33,265.34a.43.43,0,0,1-.22-.12l-19-19.48a.46.46,0,0,1,0-.65.47.47,0,0,1,.65,0l0,0,19,19.47a.46.46,0,0,1-.44.77Z"/>
              </g>
              <g id="Group_99" data-name="Group 99">
                <path id="Path_410" data-name="Path 410" class="cls-22" d="M587.91,241.37a.43.43,0,0,1-.22-.12L567,220.09a.47.47,0,0,1,0-.65.46.46,0,0,1,.65,0h0l20.68,21.17a.46.46,0,0,1,0,.65.45.45,0,0,1-.43.11Z"/>
              </g>
              <g id="Group_100" data-name="Group 100">
                <path id="Path_411" data-name="Path 411" class="cls-22" d="M563.42,216.32a.5.5,0,0,1-.22-.13l-23.9-24.45a.47.47,0,0,1,0-.65.46.46,0,0,1,.65,0l0,0,23.9,24.45a.46.46,0,0,1-.44.77Z"/>
              </g>
              <g id="Group_101" data-name="Group 101">
                <path id="Path_412" data-name="Path 412" class="cls-22" d="M539.52,191.86a.45.45,0,0,1-.21-.12l-1.07-1.09a.46.46,0,0,1,.66-.65l1.06,1.1a.46.46,0,0,1-.44.76Z"/>
              </g>
              <path id="Path_413" data-name="Path 413" class="cls-23" d="M552.6,215.38l32.6,34.33L573,252l-33.11-35.64Z"/>
            </g>
            <path id="Path_414" data-name="Path 414" class="cls-24" d="M633.76,287.51s-23.74,2.13-31.22-.77c-8-3.1-24.48-21.39-24.48-21.39l-78.15-84.83-2.12-.1L600.92,293.29l55.25-7-1.12-1.15Z"/>
          </g>
        </g>
        <g id="headphones">
          <g id="Group_108" data-name="Group 108">
            <path id="Path_415" data-name="Path 415" class="cls-25" d="M310,69.24S289.07,61.32,270.16,71s-19.29,24.65-19.48,31a64.59,64.59,0,0,0,1.5,15.43l-5.32.85a47.28,47.28,0,0,1,6.91-40.1c13.91-19.64,39.13-17.81,46.37-16.65a47.1,47.1,0,0,1,12.78,4Z"/>
            <path id="Path_416" data-name="Path 416" class="cls-26" d="M256,80c8.42-11.64,22.25-16.77,36-19.09-10.79-.13-27.74,2.45-38.26,17.29a47.28,47.28,0,0,0-6.9,40.1l2.18-.35C245.28,105.53,248.24,90.75,256,80Z"/>
            <path id="Path_417" data-name="Path 417" class="cls-27" d="M254.29,79.06c13.91-19.64,39.13-17.81,46.37-16.65A48.48,48.48,0,0,1,312.55,66l.37-.46a47,47,0,0,0-12.78-4c-7.24-1.17-32.45-3-46.37,16.64a47.31,47.31,0,0,0-6.91,40.11l.74-.12C246.2,113.21,242.48,95.71,254.29,79.06Z"/>
            <g id="Group_106" data-name="Group 106">
              <path id="Path_421" data-name="Path 421" class="cls-25" d="M325.2,86.1s5.54-3.2,9.59-1.63,14.08,12,17.2,16.45,4.59,7.33,2.5,11.63-3.71,5.62-3.71,5.62-18.16-18.42-21.89-23.43S325.2,86.1,325.2,86.1Z"/>
              <path id="Path_422" data-name="Path 422" class="cls-25" d="M325.2,86.1s5.54-3.2,9.59-1.63,14.08,12,17.2,16.45,4.59,7.33,2.5,11.63-3.71,5.62-3.71,5.62-18.16-18.42-21.89-23.43S325.2,86.1,325.2,86.1Z"/>
              <path id="Path_423" data-name="Path 423" class="cls-28" d="M336.92,85.7a11,11,0,0,0-2.13-1.23c-4.06-1.56-9.59,1.63-9.59,1.63a12.76,12.76,0,0,0,1.59,5.29C329.28,88.27,333,86.57,336.92,85.7Z"/>
              <path id="Path_424" data-name="Path 424" class="cls-12" d="M318.26,88.13s-6.57,1.14-9.54,4.91-3.46,6.59,9,20.23,14.78,19.6,22.66,19.63S349.22,121,349.22,121s-9.82-18.47-16.29-24.23A49.64,49.64,0,0,0,318.26,88.13Z"/>
              <path id="Path_425" data-name="Path 425" class="cls-29" d="M326.44,116.29c4.52,5.53,8.32,10.09,11.65,16.41a12.05,12.05,0,0,0,1.8.17c-5.29-12-13.75-24.54-24.69-31.76-2-1.32-4.1-2-3-4.62,1.41-3.34,6-5.38,9.88-6.73-2.29-1.09-3.85-1.64-3.85-1.64s-6.57,1.15-9.54,4.91A7.2,7.2,0,0,0,307,98.21a27.69,27.69,0,0,1,6.51,4.34C318.7,106.28,322.6,111.59,326.44,116.29Z"/>
              <path id="Path_426" data-name="Path 426" class="cls-25" d="M325,85a114.65,114.65,0,0,1,17.64,16.9c8.48,10.46,10.15,14.75,10.15,14.75a15.51,15.51,0,0,1-1.56,4.06,27.18,27.18,0,0,1-2.53,3.32s-11.46-16-19.31-24.36S317,88.46,317,88.46s.81-1,4.2-2.5A14.45,14.45,0,0,1,325,85Z"/>
              <path id="Path_427" data-name="Path 427" class="cls-27" d="M340.24,100.14a85.55,85.55,0,0,1,12.24,17.52c.16-.57.26-1,.26-1s-1.67-4.3-10.15-14.76A115.59,115.59,0,0,0,325,85s-.53,0-1.26.19C329.82,88.77,335.6,95,340.24,100.14Z"/>
              <path id="Path_428" data-name="Path 428" class="cls-12" d="M307,97.45c.2,2.94,2.92,7.25,10.75,15.82,11.85,13,14.53,19,21.52,19.57C330.69,119.1,321.06,105.79,307,97.45Z"/>
              <path id="Path_429" data-name="Path 429" class="cls-12" d="M320.29,73.37a15.8,15.8,0,0,1,7.88,6.35c3,4.83,4.48,11.76,6.52,17.63s2.64,10,4.24,10.16c2.54.25,2-2.1.11-7.71s-6-18.54-6.75-20.28a15.44,15.44,0,0,0-5.89-6.46,31.28,31.28,0,0,0-5.67-2.61Z"/>
              <path id="Path_430" data-name="Path 430" class="cls-10" d="M309.43,62.05l-3.17,7.8s11.08,5.34,14.94,4.73,3.93-5-.82-7.32C317.71,66,309.43,62.05,309.43,62.05Z"/>
            </g>
            <g id="Group_107" data-name="Group 107">
              <path id="Path_431" data-name="Path 431" class="cls-25" d="M264.48,133.47s-4.29,4.75-3.6,9,8.77,16.28,12.5,20.26,6.2,6,10.85,4.87,6.27-2.46,6.27-2.46-14.22-21.6-18.34-26.3S264.48,133.47,264.48,133.47Z"/>
              <path id="Path_432" data-name="Path 432" class="cls-25" d="M264.48,133.47s-4.29,4.75-3.6,9,8.77,16.28,12.5,20.26,6.2,6,10.85,4.87,6.27-2.46,6.27-2.46-14.22-21.6-18.34-26.3S264.48,133.47,264.48,133.47Z"/>
              <path id="Path_433" data-name="Path 433" class="cls-28" d="M269.73,154.5c-4.37-6.63-6.55-12.71-.5-18.44a12.53,12.53,0,0,0-4.75-2.59s-4.29,4.75-3.6,9,8.77,16.27,12.49,20.26c2.82,3,4.94,4.92,7.82,5.16C276.52,164.31,272.71,159,269.73,154.5Z"/>
              <path id="Path_434" data-name="Path 434" class="cls-12" d="M267.91,127.12s2.49-6.19,6.79-8.31,7.17-2,17.91,13,16.08,18.54,14.46,26.25-13.5,6.16-13.5,6.16-16-13.46-20.29-21A49.58,49.58,0,0,1,267.91,127.12Z"/>
              <path id="Path_435" data-name="Path 435" class="cls-29" d="M277.54,125.44c.21-.19.42-.4.64-.59a11.35,11.35,0,0,1,1.61-1.13,17.53,17.53,0,0,1-2.05-5.88,8.15,8.15,0,0,0-3,1c-4.3,2.12-6.79,8.31-6.79,8.31a51.15,51.15,0,0,0,2.45,9.67c.13-.45.29-.91.45-1.37C271.33,131.52,274.2,127.72,277.54,125.44Z"/>
              <path id="Path_436" data-name="Path 436" class="cls-25" d="M263.49,133a115.37,115.37,0,0,0,12.84,20.78c8.46,10.48,12.32,13,12.32,13a15.57,15.57,0,0,0,4.28-.69,25.64,25.64,0,0,0,3.79-1.78s-13.27-14.55-19.8-24S268.5,126,268.5,126s-1.2.58-3.33,3.59A14.21,14.21,0,0,0,263.49,133Z"/>
              <path id="Path_437" data-name="Path 437" class="cls-28" d="M270.63,130.31A38.75,38.75,0,0,1,268.5,126s-1.2.57-3.33,3.58a14.38,14.38,0,0,0-1.68,3.46s1.43,3.07,3.85,7.33A13.1,13.1,0,0,1,270.63,130.31Z"/>
              <path id="Path_438" data-name="Path 438" class="cls-27" d="M275.06,151.11a85.14,85.14,0,0,0,14.59,15.63c-.6,0-1,.06-1,.06s-3.85-2.53-12.31-13A115.37,115.37,0,0,1,263.49,133s.16-.51.45-1.19C266.13,138.55,271,145.5,275.06,151.11Z"/>
              <path id="Path_439" data-name="Path 439" class="cls-30" d="M279.38,118c2.84.81,6.48,4.37,13.23,13.82,10.2,14.29,15.53,18.17,14.64,25.13C295.6,145.73,284.6,133.54,279.38,118Z"/>
              <path id="Path_440" data-name="Path 440" class="cls-12" d="M253.05,126a15.81,15.81,0,0,0,4.57,9c4.1,3.92,10.56,6.83,15.88,10.06s9.23,4.67,9,6.26c-.28,2.53-2.47,1.54-7.55-1.5S258.1,140.15,256.56,139a15.54,15.54,0,0,1-5.09-7.1,30.24,30.24,0,0,1-1.36-6.1Z"/>
              <path id="Path_441" data-name="Path 441" class="cls-10" d="M244.26,113l8.28-1.47s2.9,12,1.5,15.6-5.7,2.79-7-2.34C246.34,121.94,244.26,113,244.26,113Z"/>
            </g>
          </g>
          <path id="Path_442" data-name="Path 442" class="cls-26" d="M323.77,90.33c.61-1.66,2.39-2.39,4.05-3C326.07,85.88,325,85,325,85a14.07,14.07,0,0,0-3.73.93c-3.39,1.45-4.2,2.5-4.2,2.5a60.84,60.84,0,0,1,8,6.82C323.91,93.78,323.14,92.07,323.77,90.33Z"/>
          <path id="Path_443" data-name="Path 443" class="cls-29" d="M321.21,74.58a3.7,3.7,0,0,0,1.94-.87,19.25,19.25,0,0,1-9.22-3.9c-2.79-2.22-3.42-4-2.68-6.9l-1.82-.85-3.16,7.79S317.34,75.19,321.21,74.58Z"/>
          <path id="Path_444" data-name="Path 444" class="cls-29" d="M248.19,112.33l-3.93.7s2.08,8.91,2.8,11.79c.84,3.35,3,4.86,4.72,4.51C248.7,124.92,248.21,117.07,248.19,112.33Z"/>
        </g>
        <g id="wifi" class="cls-31">
          <path id="Path_445" data-name="Path 445" class="cls-32" d="M436.71,241.59l9.12,2.09s3.27-11.06,14.41-14.21c12.61-3.57,18.94,2,18.94,2l3.55-7.38a28.76,28.76,0,0,0-28-2C438.68,229.5,436.71,241.59,436.71,241.59Z"/>
          <path id="Path_446" data-name="Path 446" class="cls-32" d="M450,245l6.67,1.57A9.61,9.61,0,0,1,464,238c7.55-2,10.65,1.4,10.65,1.4l2.63-4.94s-6.27-4.85-15.52-1.94C451.1,235.86,450,245,450,245Z"/>
          <path id="Path_447" data-name="Path 447" class="cls-32" d="M471,245.08a4.15,4.15,0,1,1-4.74-3.45A4.15,4.15,0,0,1,471,245.08Z"/>
          <path id="Path_448" data-name="Path 448" class="cls-33" d="M470.34,243.44a5.86,5.86,0,0,1-1.44,3.9,4.36,4.36,0,0,1-5.26.94,4.14,4.14,0,0,0,6.7-4.84Z"/>
          <path id="Path_449" data-name="Path 449" class="cls-33" d="M475.07,237.15a10.81,10.81,0,0,0-1.67-.75,11.87,11.87,0,0,0-3.61-.89,14.93,14.93,0,0,0-10.24,3.27,16.44,16.44,0,0,0-3.72,4.17c-1.24,1.94-3.52,1.07-5.47.43A10.16,10.16,0,0,0,450,245l6.67,1.57A9.6,9.6,0,0,1,464,238c7.55-2,10.65,1.4,10.65,1.4l1-1.85C475.44,237.4,475.24,237.25,475.07,237.15Z"/>
          <path id="Path_450" data-name="Path 450" class="cls-33" d="M481.05,226c-.9.74-1.91,1.8-3.13,2a11.26,11.26,0,0,1-3.8-.7,27.7,27.7,0,0,0-20.28,3.25,35.37,35.37,0,0,0-7.52,6.44c-.91,1-1.66,2.3-3.12,2.46a11.06,11.06,0,0,1-5.46-1,16.64,16.64,0,0,0-1,3.23l9.12,2.1s3.27-11.06,14.41-14.22c12.61-3.57,18.94,2,18.94,2l3.35-7A10.89,10.89,0,0,1,481.05,226Z"/>
        </g>
        <g id="music" class="cls-9">
          <path id="Path_451" data-name="Path 451" class="cls-32" d="M428.49,109.27a13.5,13.5,0,0,0,1.44-2.31c1.46-2.79,3.15-5.46,4.75-8.17L436,96.61l2.3-3.92-11.11-8.57-7.08,12.79a3.84,3.84,0,0,0-3.4-3.46,4.24,4.24,0,0,0-.59,8.4c2.79.19,4-2.83,5.16-4.79L423,94.12l2.88-4.77.25-.41,8.55,6.11-5.31,11.46a4,4,0,0,0-3.45-4.06,4.24,4.24,0,0,0-.59,8.4A3.71,3.71,0,0,0,428.49,109.27Z"/>
          <path id="Path_452" data-name="Path 452" class="cls-34" d="M423,94.11l2.88-4.76s.25-.41.25-.41l8.55,6.11-2.47,5.33c.3-.53.61-1.06.9-1.6a29.31,29.31,0,0,1,2.4-4,19.81,19.81,0,0,1-2-1.25c-1.12-.77-2.2-1.56-3.33-2.29-.91-.59-1.71-1.38-2.65-1.9a5,5,0,0,0-1.36-.66c-.4-.08-.37.07-.57.44-.44.8-1,1.57-1.46,2.33s-.93,1.61-1.44,2.37a36.78,36.78,0,0,1-3.41,4.79,5.45,5.45,0,0,1-2.2,1.41,3.56,3.56,0,0,1-2.09.25,3.38,3.38,0,0,1-2.17-1.21,3.76,3.76,0,0,0,3.25,2.77c2.8.2,4-2.82,5.16-4.78Z"/>
          <path id="Path_453" data-name="Path 453" class="cls-34" d="M430.85,105.27a8.23,8.23,0,0,1-2.26,2.44c-1.84,1.2-5.61,1.36-6.49-1.15a4,4,0,0,1-.16-.59c0,.14,0,.28-.05.42a4,4,0,0,0,3.45,4.46,3.67,3.67,0,0,0,3.14-1.59,13.1,13.1,0,0,0,1.45-2.3C430.23,106.39,430.54,105.83,430.85,105.27Z"/>
        </g>
        <g id="location" class="cls-35">
          <path id="Path_454" data-name="Path 454" class="cls-32" d="M478.07,408.47a9.88,9.88,0,0,0-10.69,9c0,.14,0,.29,0,.44a6,6,0,0,0,0,.72h0c0,.18.05.37.08.56a15.51,15.51,0,0,0,.46,1.88c.07.22.14.44.22.67a32.55,32.55,0,0,0,1.45,3.53c.11.24.22.48.34.72l.05.11.63,1.25c.68,1.32,1.39,2.6,2.07,3.75.25.43.49.85.73,1.24s.45.76.67,1.1c.95,1.53,1.61,2.51,1.61,2.51s1.16-1.22,2.54-2.8l.85-1c1.32-1.56,2.83-3.43,4.19-5.34.42-.6.83-1.2,1.21-1.79s.57-.93.83-1.38c.12-.2.24-.41.34-.61a14.6,14.6,0,0,0,1-2.31h0a6.44,6.44,0,0,0,.36-1.58A9.88,9.88,0,0,0,478.07,408.47Zm-.42,5a4.85,4.85,0,1,1-5.25,4.41A4.85,4.85,0,0,1,477.65,413.49Z"/>
          <path id="Path_455" data-name="Path 455" class="cls-34" d="M475.71,436s9-9.44,11-15.23a.61.61,0,0,1,0,.12,30.9,30.9,0,0,1-2.62,3.9c-1.53,2-5,7.15-8.1,5.46a11.65,11.65,0,0,1-3.46-3.1,30.74,30.74,0,0,1-5.08-8.49C468,424.56,475.71,436,475.71,436Z"/>
        </g>
      </g>
    </g>
  </g>
</svg>
