<svg xmlns="http://www.w3.org/2000/svg" viewBox="0 0 1440.91 756">
  <defs>
    <style>
      .cls-1 {
        fill: #001225;
      }

      .cls-2 {
        fill: #404040;
      }

      .cls-3 {
        fill: #202020;
      }

      .cls-4 {
        fill: #606060;
      }

      .cls-5 {
        fill: #a7a8a5;
      }
    </style>
  </defs>
  <g id="Layer_2" data-name="Layer 2">
    <g id="right_board" data-name="right board">
      <g id="footer-bg">
        <path id="Path_34" data-name="Path 34" class="cls-1" d="M1440,756H0V113.39C53.36,87.88,126.65,67.92,186.44,50.52A1269.46,1269.46,0,0,1,386.09,9.78,1321.45,1321.45,0,0,1,546.51,0q22.93,0,45.79.8A1250.43,1250.43,0,0,1,796.41,24.64C876.14,40.83,955,65,1031.17,88.42c29.14,9,58.71,18,88.51,26.72,38.33,11.16,77,21.67,115.7,30.4C1310,162.39,1377,170.77,1440,171.14,1442,171.15,1440,756,1440,756Z"/>
        <g id="Group_142" data-name="Group 142">
          <path id="Rectangle_77" data-name="Rectangle 77" class="cls-2" d="M1086.75,594H1241.5V716.5a38,38,0,0,1-38,38H1124.7a38,38,0,0,1-38-38h0V594Z"/>
          <path id="Rectangle_78" data-name="Rectangle 78" class="cls-3" d="M1119.72,556.23h88.81a33,33,0,0,1,33,33h0a42.64,42.64,0,0,1-42.63,42.64h-69.49a42.63,42.63,0,0,1-42.63-42.64h0A33,33,0,0,1,1119.72,556.23Z"/>
          <path id="Rectangle_79" data-name="Rectangle 79" class="cls-4" d="M1119.72,550.93h88.81a33,33,0,0,1,33,33h0a42.64,42.64,0,0,1-42.63,42.64h-69.49a42.63,42.63,0,0,1-42.63-42.64h0A33,33,0,0,1,1119.72,550.93Z"/>
          <path id="Rectangle_80" data-name="Rectangle 80" class="cls-3" d="M1103,653.4h119.43v41.28a47,47,0,0,1-47,47.05h-25.33a47,47,0,0,1-47-47.05h0V653.4Z"/>
          <path id="Path_560" data-name="Path 560" class="cls-4" d="M1103,653.4h119.43s1.42,74.2-59.71,74.2S1103,653.4,1103,653.4Z"/>
          <path id="Path_561" data-name="Path 561" class="cls-4" d="M1086.75,729.3c-9.26,0-17,1.4-17-7.85v-51.3a16.74,16.74,0,0,1,16.75-16.75h.21Z"/>
          <path id="Path_562" data-name="Path 562" class="cls-4" d="M1241.51,729.3c9.25,0,17,1.4,17-7.85v-51.3a16.75,16.75,0,0,0-16.75-16.75h-.21Z"/>
          <path id="Path_563" data-name="Path 563" class="cls-5" d="M1183,615.22a18,18,0,0,1-36-.14,17.81,17.81,0,0,1,.82-5.33,18,18,0,0,0,34.34,0A18.11,18.11,0,0,1,1183,615.22Z"/>
          <path id="Path_564" data-name="Path 564" class="cls-5" d="M1175.25,721.61a10.53,10.53,0,0,1-21,0,10.26,10.26,0,0,1,.49-3.11,10.57,10.57,0,0,0,20.07,0A10,10,0,0,1,1175.25,721.61Z"/>
          <path id="Path_565" data-name="Path 565" class="cls-2" d="M1138.83,550.93s-1.57-43.51,26.11-43.18S1189,550.93,1189,550.93h-7.26s-1.42-34.76-17.61-34.93-17.19,34.93-17.19,34.93Z"/>
          <path id="Path_566" data-name="Path 566" class="cls-2" d="M1069.79,677.56s14-2.85,17-9.37V653.4S1066.53,652.7,1069.79,677.56Z"/>
          <path id="Path_567" data-name="Path 567" class="cls-2" d="M1258.29,677.56s-14-2.85-17-9.37V653.4S1261.54,652.7,1258.29,677.56Z"/>
        </g>
      </g>
    </g>
  </g>
</svg>
