<svg xmlns="http://www.w3.org/2000/svg" xmlns:xlink="http://www.w3.org/1999/xlink" viewBox="0 0 200 239.66">
  <defs>
    <style>
      .cls-1 {
        fill: none;
      }

      .cls-2 {
        clip-path: url(#clip-path);
      }

      .cls-3 {
        fill: #001024;
      }

      .cls-4 {
        fill: #4b88e7;
      }

      .cls-5 {
        fill: #276dcc;
      }

      .cls-6 {
        fill: #dae7f8;
      }

      .cls-7 {
        fill: #fada72;
      }

      .cls-8 {
        fill: #f5b848;
      }

      .cls-9 {
        fill: #ed9c38;
      }
    </style>
    <clipPath id="clip-path" transform="translate(0 0)">
      <ellipse class="cls-1" cx="100" cy="99.5" rx="100" ry="99.5"/>
    </clipPath>
  </defs>
  <g id="Layer_2" data-name="Layer 2">
    <g id="right_board" data-name="right board">
      <g id="medal">
        <g class="cls-2">
          <g id="Mask_Group_6" data-name="Mask Group 6">
            <path class="cls-3" d="M200,99.5c0,54.95-44.78,99.5-100,99.5S0,154.45,0,99.5A99.17,99.17,0,0,1,38.8,20.81l.38-.3a100.73,100.73,0,0,1,25-13.91,100.8,100.8,0,0,1,71.22-.2h0a.34.34,0,0,1,.15.06,95.28,95.28,0,0,1,11.54,5.22,97.84,97.84,0,0,1,12.17,7.63h0A99.16,99.16,0,0,1,200,99.5Z" transform="translate(0 0)"/>
            <path class="cls-4" d="M100.47,95.06l-.58,1.3-8.07,18-.68,1.49-3.56,8H81.74l-2.61-6.32-39.95-97a100.73,100.73,0,0,1,25-13.91L99.8,93.4l0,.11Z" transform="translate(0 0)"/>
            <path class="cls-5" d="M91.14,115.88l-3.56,8H81.74l-2.62-6.31L38.8,20.81l.38-.3a98,98,0,0,1,9.31-6.3l42.38,101v0Z" transform="translate(0 0)"/>
            <path id="Path_534" data-name="Path 534" class="cls-6" d="M89.43,117H82.32A10.14,10.14,0,0,0,72.2,127.11v24.32a3.39,3.39,0,0,0,6.78,0h0V127.12a3.35,3.35,0,0,1,3.34-3.35h4.34Z" transform="translate(0 0)"/>
            <path id="Path_535" data-name="Path 535" class="cls-6" d="M117.33,117l-2.77,6.77h2.64a3.35,3.35,0,0,1,3.34,3.35v24.31a3.39,3.39,0,1,0,6.78,0V127.12A10.13,10.13,0,0,0,117.33,117Z" transform="translate(0 0)"/>
            <path class="cls-4" d="M159.22,19.32h0l-39,98.14-2.52,6.35-2.25,5.65H85.05l2.31-5.63,3.52-8.59v0l.94-.84,8.27-7.53-.2-10.5,0-2.85v-.15L135.51,6.47a95.28,95.28,0,0,1,11.54,5.22A97.84,97.84,0,0,1,159.22,19.32Z" transform="translate(0 0)"/>
            <path class="cls-5" d="M147.05,11.69,97.71,129.47H85.05l2.29-5.63,3.53-8.62L99.8,93.4l35.56-87a.34.34,0,0,1,.15.06A95.28,95.28,0,0,1,147.05,11.69Z" transform="translate(0 0)"/>
          </g>
        </g>
        <g id="medal-2">
          <circle id="Ellipse_155" data-name="Ellipse 155" class="cls-7" cx="99.75" cy="188.78" r="50.88"/>
          <path id="Path_538" data-name="Path 538" class="cls-8" d="M67.25,188.78A50.9,50.9,0,0,1,109,138.73a50.88,50.88,0,1,0,0,100.11A50.9,50.9,0,0,1,67.25,188.78Z" transform="translate(0 0)"/>
          <circle id="Ellipse_156" data-name="Ellipse 156" class="cls-8" cx="99.74" cy="188.78" r="36.46"/>
          <path id="Path_539" data-name="Path 539" class="cls-9" d="M81.67,188.79A36.47,36.47,0,0,1,109,153.49a36.46,36.46,0,1,0,0,70.59A36.47,36.47,0,0,1,81.67,188.79Z" transform="translate(0 0)"/>
          <path id="Path_540" data-name="Path 540" class="cls-7" d="M117.15,188.72a3.24,3.24,0,0,0,0-4.58,3.2,3.2,0,0,0-1.85-.94l-7.08-1a3.23,3.23,0,0,1-2.44-1.77L102.66,174a3.24,3.24,0,0,0-4.33-1.47A3.29,3.29,0,0,0,96.85,174l-3.16,6.42a3.23,3.23,0,0,1-2.44,1.77l-7.08,1a3.24,3.24,0,0,0-1.8,5.52l5.12,5a3.21,3.21,0,0,1,.94,2.86l-1.21,7a3.24,3.24,0,0,0,4.7,3.42l6.33-3.33a3.23,3.23,0,0,1,3,0l6.33,3.33a3.24,3.24,0,0,0,4.7-3.42l-1.21-7a3.23,3.23,0,0,1,.93-2.86Z" transform="translate(0 0)"/>
        </g>
      </g>
    </g>
  </g>
</svg>
