<svg xmlns="http://www.w3.org/2000/svg" viewBox="0 0 36 31.5">
  <defs>
    <style>
      .cls-1 {
        fill: #f0385a;
      }
    </style>
  </defs>
  <g id="Layer_2" data-name="Layer 2">
    <g id="right_board" data-name="right board">
      <path id="Icon_awesome-quote-left" data-name="Icon awesome-quote-left" class="cls-1" d="M32.63,15.75H27v-4.5a4.49,4.49,0,0,1,4.5-4.5h.56a1.69,1.69,0,0,0,1.69-1.68h0V1.69A1.69,1.69,0,0,0,32.07,0H31.5A11.25,11.25,0,0,0,20.25,11.24h0V28.13a3.37,3.37,0,0,0,3.38,3.37h9A3.37,3.37,0,0,0,36,28.13v-9A3.37,3.37,0,0,0,32.63,15.75Zm-20.25,0H6.75v-4.5a4.49,4.49,0,0,1,4.5-4.5h.56A1.69,1.69,0,0,0,13.5,5.07h0V1.69A1.69,1.69,0,0,0,11.82,0h-.57A11.25,11.25,0,0,0,0,11.24H0V28.13A3.37,3.37,0,0,0,3.38,31.5h9a3.37,3.37,0,0,0,3.37-3.37v-9A3.37,3.37,0,0,0,12.38,15.75Z"/>
    </g>
  </g>
</svg>
